<?xml version="1.0" standalone="no"?>
<!DOCTYPE svg PUBLIC "-//W3C//DTD SVG 1.1//EN" "http://www.w3.org/Graphics/SVG/1.1/DTD/svg11.dtd" >
<svg xmlns="http://www.w3.org/2000/svg" xmlns:xlink="http://www.w3.org/1999/xlink" version="1.1">
<metadata>
Created by FontForge 20161116 at Thu Aug 31 00:08:13 2017
 By Jimmy Wärting
(C) Copyright 1991 The Monotype Corporation Plc. All Rights Reserved. 
</metadata>
<defs>
<font id="Perpetua-Bold" horiz-adv-x="458" >
  <font-face 
    font-family="Perpetua"
    font-weight="700"
    font-stretch="normal"
    units-per-em="1000"
    panose-1="0 0 0 0 0 0 0 0 0 0"
    ascent="750"
    descent="-250"
    x-height="377"
    cap-height="585"
    bbox="-157 -309 1019 820"
    underline-thickness="50"
    underline-position="-100"
    unicode-range="U+000D-FB02"
  />
<missing-glyph horiz-adv-x="225" 
 />
    <glyph glyph-name=".notdef" horiz-adv-x="225" 
 />
    <glyph glyph-name=".null" horiz-adv-x="0" 
 />
    <glyph glyph-name=".null" horiz-adv-x="0" 
 />
    <glyph glyph-name="nonmarkingreturn" unicode="&#xd;" horiz-adv-x="250" 
 />
    <glyph glyph-name="space" unicode=" " horiz-adv-x="225" 
 />
    <glyph glyph-name="exclam" unicode="!" horiz-adv-x="260" 
d="M120 195q-18 104 -26 175.5t-12 117.5t-7 70t-12 33t-21.5 9t-23.5 -2v17q20 5 55.5 8t67.5 3t44.5 -9.5t12.5 -32.5q0 -22 -7.5 -66.5t-18 -99.5t-21 -114t-16.5 -109h-15zM131 133q31 0 52.5 -21.5t21.5 -52.5t-21.5 -52.5t-52.5 -21.5t-52.5 21.5t-21.5 52.5
t21.5 52.5t52.5 21.5z" />
    <glyph glyph-name="quotedbl" unicode="&#x22;" horiz-adv-x="555" 
d="M329 485q-2 14 -6.5 39t-4.5 44q0 27 11.5 42.5t35.5 15.5q20 0 35.5 -13.5t15.5 -38.5q0 -8 -1.5 -20.5t-4 -26t-4.5 -25t-3 -17.5l-27 -144h-21zM150 485q-2 14 -6.5 39t-4.5 44q0 27 11.5 42.5t35.5 15.5q20 0 35.5 -13.5t15.5 -38.5q0 -8 -1.5 -20.5t-4 -26t-4.5 -25
t-3 -17.5l-27 -144h-21z" />
    <glyph glyph-name="numbersign" unicode="#" horiz-adv-x="668" 
d="M244 672h62l-41 -195h203l41 195h62l-41 -195h92v-62h-105l-39 -180h144v-62h-157l-41 -195h-62l41 195h-203l-41 -195h-62l41 195h-92v62h105l39 180h-144v62h157zM252 415l-39 -180h203l39 180h-203z" />
    <glyph glyph-name="dollar" unicode="$" 
d="M234 573q46 -2 81.5 -16t64.5 -40l-13 -114h-17q-5 70 -35 104.5t-81 35.5v-194q43 -28 76.5 -53.5t56.5 -50.5t35 -52t12 -60q0 -32 -13 -59t-36.5 -47t-56.5 -31t-74 -11v-103h-26v103q-50 2 -92.5 18.5t-71.5 46.5l21 115h17q8 -72 39 -108.5t87 -41.5v212
q-45 32 -75.5 57t-49 47.5t-27 45t-8.5 47.5q0 30 12.5 56.5t34 46.5t50.5 32.5t63 13.5v42h26v-42zM208 543q-36 -3 -60 -23t-24 -49q0 -25 19.5 -49.5t64.5 -53.5v175zM234 15q44 2 71 24.5t27 56.5t-28.5 60.5t-69.5 52.5v-194z" />
    <glyph glyph-name="percent" unicode="%" horiz-adv-x="792" 
d="M590 152q0 -72 11.5 -105t35.5 -33q26 0 36.5 38t10.5 113q0 61 -12 93t-35 32q-24 0 -35.5 -33t-11.5 -105zM506 152q0 75 34.5 117.5t96.5 42.5q60 0 95 -41.5t35 -111.5q0 -81 -33.5 -124t-96.5 -43q-62 0 -96.5 42.5t-34.5 117.5zM220 -8h-65l416 606h65zM24 440
q0 75 34.5 117.5t96.5 42.5q60 0 95 -41.5t35 -111.5q0 -81 -33.5 -124t-96.5 -43q-62 0 -96.5 42.5t-34.5 117.5zM108 440q0 -72 11.5 -105t35.5 -33q26 0 36.5 38t10.5 113q0 61 -12 93t-35 32q-24 0 -35.5 -33t-11.5 -105z" />
    <glyph glyph-name="ampersand" unicode="&#x26;" horiz-adv-x="771" 
d="M679 348q-24 -7 -41 -22t-32.5 -39t-32 -57t-40.5 -76q40 -46 73.5 -73t69.5 -27q27 0 49 21l13 -11q-49 -79 -145 -79q-41 0 -72.5 15.5t-70.5 54.5q-49 -36 -96.5 -53t-101.5 -17q-43 0 -78.5 11.5t-61 31.5t-39.5 48t-14 62q0 58 40.5 104.5t113.5 79.5q-38 42 -55 74
t-17 64q0 27 12 52.5t36 45t59.5 31t82.5 11.5q78 0 122 -30.5t44 -84.5q0 -45 -35 -84t-104 -53q40 -42 76 -80.5t73 -83.5q21 38 29.5 62.5t8.5 44.5q0 43 -38 57v17h172v-17zM252 498q0 -27 18 -54t60 -67q26 8 42.5 27.5t16.5 42.5t-6.5 43t-17.5 35t-25 24t-30 9
q-26 0 -42 -16.5t-16 -43.5zM184 205q0 -33 11.5 -62t31 -50.5t46 -34.5t55.5 -13q50 0 99 38q-17 21 -40.5 49.5t-49 58t-51 57.5t-47.5 47q-29 -20 -42 -40t-13 -50z" />
    <glyph glyph-name="quotesingle" unicode="'" horiz-adv-x="278" 
d="M101 485q-2 14 -6.5 39t-4.5 44q0 27 11.5 42.5t35.5 15.5q20 0 35.5 -13.5t15.5 -38.5q0 -8 -1.5 -20.5t-4 -26t-4.5 -25t-3 -17.5l-27 -144h-21z" />
    <glyph glyph-name="parenleft" unicode="(" horiz-adv-x="365" 
d="M339 615q-82 -82 -118 -191.5t-36 -265.5q0 -78 8 -141.5t26 -118t47.5 -102.5t72.5 -94l-10 -11q-66 42 -116.5 88t-84 101t-51 123.5t-17.5 155.5q0 81 15.5 147.5t48.5 123t84 104.5t121 92z" />
    <glyph glyph-name="parenright" unicode=")" horiz-adv-x="365" 
d="M37 626q138 -84 203 -196t65 -271q0 -91 -19.5 -162t-55 -126.5t-84.5 -99t-109 -80.5l-11 11q44 47 73.5 96t47.5 104.5t25.5 118.5t7.5 138t-7 137.5t-25 117.5t-47.5 104t-74.5 97z" />
    <glyph glyph-name="asterisk" unicode="*" horiz-adv-x="510" 
d="M298 406q-9 0 -28 -4q9 -11 18 -18t35 -21q26 -15 39 -24.5t21 -18.5q23 -25 23 -49q0 -20 -15.5 -36t-35.5 -16q-14 0 -29 8.5t-23 20.5t-16 37t-12 48l-5 26q-2 8 -4.5 15.5t-8.5 18.5q-5 -9 -8 -14.5t-5.5 -11.5t-4 -14.5t-4.5 -22.5q-5 -24 -12.5 -46.5t-16.5 -36.5
q-8 -13 -21.5 -20.5t-28.5 -7.5q-21 0 -36.5 15.5t-15.5 36.5q0 49 84 93l19 9.5t12 7.5t10.5 8.5t13.5 12.5q-10 2 -15.5 2.5t-12.5 0.5h-12l-31 -2l-43 -2q-41 0 -63 15t-22 43q0 22 16 38t38 16q13 0 24 -4t27 -14q10 -7 22 -16.5t21 -17.5l22 -22q8 -7 15 -11.5t19 -9.5
q-2 11 -3.5 17.5t-3.5 12.5t-5.5 14.5t-9.5 21.5q-12 26 -17.5 47t-5.5 38q0 23 16 40t39 17t38 -16.5t15 -41.5q0 -19 -5.5 -39t-18.5 -45q-6 -13 -10 -21.5t-6 -15t-3.5 -13t-2.5 -16.5q9 5 15 9t11.5 7.5t11 8.5t13.5 13q31 29 54 41.5t43 12.5q23 0 38.5 -15t15.5 -37
q0 -27 -22.5 -43t-58.5 -16q-12 0 -26.5 1t-30.5 3z" />
    <glyph glyph-name="plus" unicode="+" horiz-adv-x="667" 
d="M302 358v235h62v-235h235v-62h-235v-235h-62v235h-235v62h235z" />
    <glyph glyph-name="comma" unicode="," horiz-adv-x="260" 
d="M43 -164q49 17 72 44t23 69q0 11 -4.5 24.5t-13.5 13.5q-3 0 -7.5 -1t-9.5 -1q-24 0 -41 20.5t-17 47.5q0 31 20.5 51t53.5 20q21 0 39 -10t31.5 -27t21 -40t7.5 -49q0 -32 -14.5 -63.5t-39 -56t-56 -41t-65.5 -18.5v17z" />
    <glyph glyph-name="hyphen" unicode="-" horiz-adv-x="365" 
d="M332 147h-299v84h299v-84z" />
    <glyph glyph-name="period" unicode="." horiz-adv-x="260" 
d="M130 133q31 0 52.5 -21.5t21.5 -52.5t-21.5 -52.5t-52.5 -21.5t-52.5 21.5t-21.5 52.5t21.5 52.5t52.5 21.5z" />
    <glyph glyph-name="slash" unicode="/" horiz-adv-x="531" 
d="M450 591l-296 -606h-73l296 606h73z" />
    <glyph glyph-name="zero" unicode="0" 
d="M439 298q0 -72 -14.5 -130t-41.5 -98.5t-65.5 -62.5t-86.5 -22t-87.5 21t-67.5 59t-43 92.5t-15 120.5q0 153 55.5 237.5t155.5 84.5q49 0 88 -20.5t66 -59.5t41.5 -95t14.5 -127zM318 304q0 47 -3 94t-12 85.5t-26.5 62.5t-47.5 24q-28 0 -45.5 -23t-27.5 -63.5
t-13.5 -96t-3.5 -120.5q0 -53 5 -99t15.5 -80t27.5 -53.5t41 -19.5q30 0 47.5 24t27 63.5t12.5 92t3 109.5z" />
    <glyph glyph-name="one" unicode="1" 
d="M179 450q0 24 -2.5 31t-12.5 7q-8 0 -29 -5t-50 -6v12q35 10 84 39.5t105 71.5h14v-501q0 -23 2.5 -38t9 -24.5t18 -14.5t30.5 -9v-13h-231v13q22 3 34.5 10t18.5 17.5t7.5 25t1.5 33.5v351z" />
    <glyph glyph-name="two" unicode="2" 
d="M428 0h-399v24q45 42 87 79.5t65 65.5q32 39 54.5 70.5t36.5 59t20 53.5t6 54q0 56 -27.5 91t-72.5 35q-41 0 -72 -29t-40 -77h-13q11 79 53.5 126.5t117.5 47.5q44 0 76.5 -15.5t53.5 -39.5t31.5 -53t10.5 -56q0 -41 -19 -81.5t-55.5 -83.5t-89.5 -90t-122 -101v-2h298
v-78z" />
    <glyph glyph-name="three" unicode="3" 
d="M75 514q21 40 61.5 63t91.5 23q32 0 59 -10t46.5 -28t30.5 -43t11 -55q0 -50 -37 -90t-102 -58v-2q75 -5 117.5 -46.5t42.5 -109.5q0 -37 -14.5 -69t-40 -55t-60.5 -36t-77 -13q-103 0 -163 78l8 8q32 -25 58 -36.5t54 -11.5q51 0 82.5 34.5t31.5 89.5q0 27 -8.5 54
t-28 48t-51 32.5t-76.5 6.5v16q81 17 117 54.5t36 88.5q0 28 -10 48t-25 32.5t-31.5 18.5t-29.5 6q-20 0 -39.5 -10t-45.5 -36z" />
    <glyph glyph-name="four" unicode="4" 
d="M324 -13h-103v157h-211v22l297 434h17v-402h114v-54h-114v-157zM221 411h-2l-139 -213h141v213z" />
    <glyph glyph-name="five" unicode="5" 
d="M157 327q14 4 24.5 5t25.5 1q44 0 80 -12.5t62 -35.5t40.5 -54.5t14.5 -70.5t-14.5 -71t-40.5 -55.5t-62 -36t-80 -12.5q-112 0 -174 87l8 7q61 -46 121 -46q53 0 87 32.5t34 82.5q0 48 -33 78t-86 30q-11 0 -22 -1t-30 -5v335h278v-102h-233v-156z" />
    <glyph glyph-name="six" unicode="6" 
d="M390 585q-61 -9 -104.5 -39.5t-72 -72.5t-42.5 -91t-16 -94q68 33 124 33q33 0 61.5 -12t49.5 -33t33 -50t12 -62q0 -39 -15 -71.5t-41.5 -56.5t-63 -37.5t-79.5 -13.5q-47 0 -86 17t-67 47.5t-43.5 73t-15.5 93.5q0 81 30 151t81 121.5t117 80.5t138 29v-13zM326 141
q0 20 -5 42.5t-16 42t-29.5 32.5t-44.5 13q-45 0 -83 -34q-2 -13 -2.5 -22t-0.5 -23q0 -85 27 -131t69 -46q18 0 33.5 10t27 27t18 40t6.5 49z" />
    <glyph glyph-name="seven" unicode="7" 
d="M114 479q-15 0 -25 -3t-18 -10.5t-15 -21t-16 -34.5h-14l48 196h13q2 -12 6 -16.5t15 -4.5h331l-200 -600h-125l246 494h-246z" />
    <glyph glyph-name="eight" unicode="8" 
d="M399 459q0 -20 -5 -36.5t-16 -32.5t-29.5 -32.5t-45.5 -36.5q34 -23 56.5 -43t36 -39t19 -39t5.5 -44q0 -29 -10.5 -59.5t-34.5 -55t-62.5 -40.5t-94.5 -16q-40 0 -73 10.5t-57 29.5t-37 45.5t-13 58.5q0 46 27.5 84t95.5 67q-59 38 -83 72.5t-24 80.5q0 37 13.5 67.5
t37 52.5t56.5 34.5t72 12.5q37 0 67.5 -10t52.5 -29t34 -44.5t12 -57.5zM131 488q0 -34 34.5 -69t105.5 -76q31 31 41.5 53t10.5 53q0 52 -30 86.5t-77 34.5q-35 0 -60 -24.5t-25 -57.5zM119 136q0 -26 9 -48t24 -38.5t36 -25.5t45 -9q20 0 38 7t31.5 19t21.5 28t8 33
q0 25 -12 47t-32 41.5t-46 37t-54 32.5q-37 -27 -53 -56.5t-16 -67.5z" />
    <glyph glyph-name="nine" unicode="9" 
d="M69 -2q55 9 96.5 35.5t71 66t46 89.5t21.5 106q-69 -33 -125 -33q-33 0 -61.5 12t-49 33.5t-32.5 50.5t-12 62q0 38 15 70.5t41.5 56.5t63 37.5t78.5 13.5q47 0 86.5 -17t67.5 -47.5t43.5 -73t15.5 -93.5q0 -70 -26.5 -138.5t-74.5 -122.5t-115.5 -87.5t-149.5 -33.5v13z
M133 443q0 -60 25.5 -95t68.5 -35q44 0 83 33q2 14 3 22.5t1 22.5q0 83 -26.5 130t-70.5 47q-17 0 -32.5 -10t-27 -27t-18 -39.5t-6.5 -48.5z" />
    <glyph glyph-name="colon" unicode=":" horiz-adv-x="260" 
d="M130 411q31 0 52.5 -21.5t21.5 -52.5t-21.5 -52.5t-52.5 -21.5t-52.5 21.5t-21.5 52.5t21.5 52.5t52.5 21.5zM130 133q31 0 52.5 -21.5t21.5 -52.5t-21.5 -52.5t-52.5 -21.5t-52.5 21.5t-21.5 52.5t21.5 52.5t52.5 21.5z" />
    <glyph glyph-name="semicolon" unicode=";" horiz-adv-x="260" 
d="M43 -164q49 17 72 44t23 69q0 11 -4.5 24.5t-13.5 13.5q-3 0 -7.5 -1t-9.5 -1q-24 0 -41 20.5t-17 47.5q0 31 20.5 51t53.5 20q21 0 39 -10t31.5 -27t21 -40t7.5 -49q0 -32 -14.5 -63.5t-39 -56t-56 -41t-65.5 -18.5v17zM130 411q31 0 52.5 -21.5t21.5 -52.5t-21.5 -52.5
t-52.5 -21.5t-52.5 21.5t-21.5 52.5t21.5 52.5t52.5 21.5z" />
    <glyph glyph-name="less" unicode="&#x3c;" horiz-adv-x="667" 
d="M68 353l530 223v-69l-444 -183l444 -183v-69l-530 223v58z" />
    <glyph glyph-name="equal" unicode="=" horiz-adv-x="667" 
d="M599 472v-62h-532v62h532zM599 241v-62h-532v62h532z" />
    <glyph glyph-name="greater" unicode="&#x3e;" horiz-adv-x="667" 
d="M69 72v69l444 183l-444 183v69l530 -223v-58z" />
    <glyph glyph-name="question" unicode="?" horiz-adv-x="365" 
d="M141 183q-5 14 -7 23.5t-2 20.5q0 26 15 45.5t33 40t33 47t15 65.5q0 23 -8 43.5t-22.5 35.5t-33.5 24t-40 9q-25 0 -43 -10t-35 -33l-14 13q14 54 53 86.5t89 32.5q32 0 61 -13.5t50.5 -37t34.5 -54t13 -64.5q0 -41 -15 -80.5t-43 -67.5q-19 -19 -39.5 -30.5
t-37.5 -23.5t-28 -27.5t-12 -44.5h-17zM157 133q31 0 52.5 -21.5t21.5 -52.5t-21.5 -52.5t-52.5 -21.5t-52.5 21.5t-21.5 52.5t21.5 52.5t52.5 21.5z" />
    <glyph glyph-name="at" unicode="@" horiz-adv-x="930" 
d="M604 158q-5 -17 -9 -36t-4 -35t10.5 -26.5t25.5 -10.5q36 0 73 25.5t67 69.5t49 102t19 122q0 66 -23.5 121.5t-65.5 95t-100.5 62t-127.5 22.5q-99 0 -176.5 -41t-131.5 -107t-82.5 -149.5t-28.5 -168.5q0 -86 28 -158t79 -124t121 -80.5t154 -28.5q134 0 235.5 70
t157.5 201h28q-22 -71 -64.5 -127t-99 -94.5t-123 -58.5t-136.5 -20q-92 0 -170 32.5t-135 90.5t-89 137.5t-32 172.5q0 101 36 188t98.5 151.5t146.5 101.5t181 37q78 0 142.5 -24.5t110 -68.5t71 -105.5t25.5 -136.5q0 -58 -17.5 -119t-51.5 -111t-84.5 -82.5
t-115.5 -32.5q-75 0 -75 67q0 16 1.5 30.5t6.5 39.5l-2 2q-53 -72 -101 -105.5t-89 -33.5q-19 0 -35 9t-28 24t-19 35.5t-7 44.5q0 59 27 119.5t67 110t87.5 81t87.5 31.5q35 0 57 -17.5t27 -49.5h2l15 54l77 10zM523 448q-23 0 -47 -16.5t-46 -43t-41 -59.5t-33.5 -67
t-22.5 -65t-8 -53q0 -29 17 -49.5t40 -20.5q41 0 88 47q33 33 54.5 67.5t34 68.5t18 65.5t5.5 57.5q0 30 -16.5 49t-42.5 19z" />
    <glyph glyph-name="A" unicode="A" horiz-adv-x="667" 
d="M390 197h-208l-29 -78q-16 -42 -8.5 -65.5t55.5 -36.5v-17h-189v17q43 8 67 45t43 88l168 450h80l178 -468q24 -62 47.5 -87t61.5 -28v-17h-287v17q27 5 42 12t20.5 17.5t3 25t-10.5 35.5zM285 476l-85 -237h174z" />
    <glyph glyph-name="B" unicode="B" horiz-adv-x="615" 
d="M106 488q0 40 -15 56.5t-59 23.5v17h309q44 0 81 -8.5t63.5 -25.5t41.5 -42.5t15 -60.5q0 -21 -5.5 -41t-20.5 -38t-40 -33t-64 -26v-2q166 -30 166 -154q0 -32 -12.5 -60t-37.5 -49t-60.5 -33t-82.5 -12h-353v17q20 4 34 9t23 14t13 23t4 36v389zM282 317q57 0 88.5 31
t31.5 87q0 57 -32.5 87t-96.5 30h-38v-235h47zM235 105q0 -37 18 -54.5t67 -17.5q56 0 87 33t31 91q0 24 -7 46.5t-23 40.5t-41.5 29t-62.5 11h-69v-179z" />
    <glyph glyph-name="C" unicode="C" horiz-adv-x="615" 
d="M583 104q-45 -61 -102.5 -90t-134.5 -29q-67 0 -122.5 22t-95.5 61.5t-62 94.5t-22 121q0 68 24 125.5t66.5 100t100.5 66.5t125 24q33 0 58.5 -5.5t45.5 -12t35 -12t26 -5.5q22 0 36 30h16v-214h-16q-20 89 -72 137.5t-127 48.5q-41 0 -74 -18t-56 -51t-35.5 -80
t-12.5 -105q0 -74 17.5 -125.5t46.5 -84t67 -47t80 -14.5q54 0 98 22t90 71v-31z" />
    <glyph glyph-name="D" unicode="D" horiz-adv-x="719" 
d="M105 485q0 20 -3 33t-11 22t-22.5 15.5t-37.5 12.5v17h299q91 0 157 -24.5t109.5 -66t64.5 -96t21 -113.5q0 -63 -21 -115.5t-61 -90t-98.5 -58.5t-132.5 -21h-338v17q26 7 41 14.5t22.5 18t9 25.5t1.5 37v373zM234 102q0 -35 20 -52t75 -17q103 0 158 67t55 191
q0 52 -13 99.5t-41.5 83.5t-72 57t-105.5 21h-76v-450z" />
    <glyph glyph-name="E" unicode="E" horiz-adv-x="510" 
d="M438 202h-19q-10 75 -81 75h-103v-172q0 -40 18 -56t62 -16h34q27 0 47 9t34.5 24.5t24.5 35t17 40.5h17l-11 -142h-446v17q24 5 39 12t22.5 17.5t10 26.5t2.5 38v376q0 19 -3 32.5t-11 22.5t-22.5 15.5t-37.5 10.5v17h439v-130h-17q-7 28 -15.5 46.5t-20.5 30t-29 16
t-41 4.5h-113v-242h103q35 0 53.5 16.5t27.5 56.5h19v-181z" />
    <glyph glyph-name="F" unicode="F" horiz-adv-x="479" 
d="M442 206h-17q-7 39 -28 56t-63 17h-91v-181q0 -39 15.5 -56.5t56.5 -24.5v-17h-275v17q23 4 37.5 10.5t22.5 17.5t11 27t3 40v377q0 36 -15 51.5t-59 27.5v17h415l12 -110h-17q-17 43 -41.5 60t-64.5 17h-101v-240h91q42 0 61 17t30 58h17v-181z" />
    <glyph glyph-name="G" unicode="G" horiz-adv-x="667" 
d="M587 27q-42 -20 -101.5 -31t-125.5 -11q-79 0 -138.5 26.5t-99.5 69t-60 97t-20 110.5q0 67 24 124t66.5 99t100.5 65.5t127 23.5q33 0 58 -5.5t44.5 -12t35 -12t29.5 -5.5q12 0 21.5 4.5t20.5 15.5h18v-164h-18q-26 67 -80.5 106.5t-120.5 39.5q-91 0 -138.5 -76
t-47.5 -213q0 -70 14 -119.5t39.5 -80.5t60 -45.5t74.5 -14.5t64 13t24 49v87q0 29 -13 47t-47 25v17h246v-17q-32 -9 -44.5 -28t-12.5 -60v-124z" />
    <glyph glyph-name="H" unicode="H" horiz-adv-x="771" 
d="M245 284v-185q0 -19 3 -32.5t10.5 -22.5t22 -15t36.5 -12v-17h-275v17q27 7 42 14.5t22 18.5t8.5 26t1.5 36v374q0 20 -3 33t-11 22t-22.5 15t-37.5 12v17h275v-17q-41 -10 -56.5 -25.5t-15.5 -52.5v-164h281v160q0 20 -3 33t-11 22t-22 15t-37 12v17h276v-17
q-26 -7 -41 -14t-22.5 -17t-9 -25.5t-1.5 -38.5v-374q0 -19 3 -32.5t11 -22.5t22.5 -15t37.5 -12v-17h-276v17q26 6 40.5 13.5t22 19t9 26.5t1.5 36v172h-281z" />
    <glyph glyph-name="I" unicode="I" horiz-adv-x="365" 
d="M247 99q0 -19 3 -32.5t11 -22.5t22.5 -15t37.5 -12v-17h-277v17q27 7 42 14.5t22 18.5t8.5 26t1.5 36v374q0 20 -3 33t-11 22t-22.5 15t-37.5 12v17h277v-17q-26 -6 -41 -13.5t-22.5 -18.5t-9 -26t-1.5 -36v-375z" />
    <glyph glyph-name="J" unicode="J" horiz-adv-x="396" 
d="M283 -44q0 -39 -10 -72.5t-30.5 -58t-51.5 -38t-74 -13.5q-62 0 -104 33.5t-49 88.5h17q29 -56 87 -56q49 0 67.5 33.5t18.5 105.5v505q0 21 -3 35t-11.5 23t-23 15t-37.5 11v17h277v-17q-26 -7 -40.5 -14t-22 -17t-9 -25t-1.5 -38v-518z" />
    <glyph glyph-name="K" unicode="K" horiz-adv-x="656" 
d="M563 79q15 -18 25.5 -29.5t20 -18.5t19.5 -10t22 -4v-17h-267v17q29 7 38 18.5t-10 34.5l-181 227h-2v-191q0 -23 3 -37t11 -23.5t22 -15.5t37 -13v-17h-276v17q22 5 36.5 11t22.5 15.5t11.5 23.5t3.5 35v384q0 20 -3 33t-11 22t-22.5 15t-37.5 12v17h276v-17
q-35 -8 -54 -22.5t-19 -52.5v-173l180 173q9 9 14.5 19.5t3 21t-15 19.5t-38.5 15v17h243v-17q-44 0 -83.5 -23.5t-93.5 -74.5l-109 -103z" />
    <glyph glyph-name="L" unicode="L" horiz-adv-x="510" 
d="M237 96q0 -36 19 -49.5t73 -13.5q27 0 47.5 5t38 18t33 36.5t33.5 59.5h17l-17 -152h-447v17q25 6 40 13t22.5 17.5t9.5 25.5t2 39v374q0 20 -3 33t-11 22t-22.5 15t-37.5 12v17h277v-17q-22 -6 -36 -11.5t-22.5 -14t-12 -21t-3.5 -31.5v-394z" />
    <glyph glyph-name="M" unicode="M" horiz-adv-x="906" 
d="M799 108q5 -38 25.5 -60.5t63.5 -30.5v-17h-289v17q48 12 60 42t4 87l-48 334h-2l-190 -480h-21l-188 480h-2l-51 -344q-8 -51 5.5 -83t63.5 -36v-17h-212v17q48 2 70.5 31.5t33.5 97.5l58 382q-17 18 -39.5 28.5t-45.5 11.5v17h211l153 -386l155 386h198v-17
q-45 -8 -58.5 -31t-7.5 -64z" />
    <glyph glyph-name="N" unicode="N" horiz-adv-x="667" 
d="M569 -7h-19l-421 475v-358q0 -24 4 -40t14 -26.5t26.5 -16.5t41.5 -10v-17h-202v17q48 8 63 33t14 68v392q-17 17 -28 27.5t-19 16.5t-15 9t-16 5v17h176l342 -392v263q0 27 -3 45.5t-11 31.5t-22.5 21.5t-37.5 13.5v17h198v-17q-50 -3 -67.5 -30t-17.5 -66v-479z" />
    <glyph glyph-name="O" unicode="O" horiz-adv-x="719" 
d="M678 292q0 -67 -23.5 -123.5t-66 -97t-101 -63.5t-128.5 -23q-69 0 -127.5 23t-101 63.5t-66 97t-23.5 123.5t23.5 123.5t66 97.5t101 64t127.5 23q70 0 128.5 -23t101 -64t66 -97.5t23.5 -123.5zM538 288q0 62 -10 113t-31.5 88t-55.5 57.5t-82 20.5q-87 0 -132.5 -70
t-45.5 -210q0 -53 9.5 -101.5t30.5 -86t55 -59.5t83 -22q37 0 69.5 15t57 47.5t38.5 84t14 123.5z" />
    <glyph glyph-name="P" unicode="P" horiz-adv-x="542" 
d="M233 99q0 -39 15.5 -56.5t57.5 -25.5v-17h-276v17q22 5 36.5 11t22.5 16t11.5 25t3.5 37v382q0 20 -3 33t-11 22t-22.5 14.5t-37.5 10.5v17h300q53 0 91 -13.5t62 -35.5t35.5 -49.5t11.5 -56.5q0 -28 -11.5 -57.5t-37.5 -54.5t-68.5 -41t-105.5 -16q-17 0 -34 1t-40 4
v-167zM233 301q12 -4 21.5 -5.5t21.5 -1.5q54 0 84 34t30 97q0 57 -30 92t-78 35h-49v-251z" />
    <glyph glyph-name="Q" unicode="Q" horiz-adv-x="719" 
d="M733 -213q-26 -7 -47.5 -9.5t-49.5 -2.5q-72 0 -127 24.5t-111 81.5l-78 79q-20 21 -41.5 30t-45.5 18t-50.5 23.5t-57.5 45.5q-35 35 -59.5 91t-24.5 125q0 67 23.5 123t66 97t101 64t127.5 23q70 0 128.5 -23t101 -64t66 -97t23.5 -123q0 -54 -15.5 -101t-44 -85.5
t-68.5 -66t-90 -41.5l-3 -1l135 -133q17 -17 31 -28t29.5 -18t34.5 -10.5t46 -3.5v-18zM538 293q0 128 -45.5 201t-133.5 73q-45 0 -78.5 -20t-55.5 -56.5t-33 -88.5t-11 -116q0 -52 9 -100.5t30 -85.5t55 -59.5t84 -22.5q83 0 131 69.5t48 205.5z" />
    <glyph glyph-name="R" unicode="R" horiz-adv-x="656" 
d="M101 488q0 18 -2.5 31.5t-10.5 22.5t-22.5 15.5t-38.5 10.5v17h278q61 0 104 -11.5t70.5 -31.5t40 -46.5t12.5 -57.5q0 -45 -27.5 -83t-90.5 -56v-2q24 -6 48 -39t47 -74.5t44.5 -81.5t41.5 -60q11 -11 22.5 -16.5t30.5 -8.5v-17h-169q-24 29 -44.5 65.5t-38.5 72.5
t-34.5 66.5t-33.5 47.5q-19 20 -39 23.5t-59 3.5v-180q0 -39 17 -57.5t58 -24.5v-17h-278v17q74 6 74 75v396zM230 312q84 -6 123 22.5t39 101.5q0 57 -31 86.5t-91 29.5h-40v-240z" />
    <glyph glyph-name="S" unicode="S" 
d="M382 446h-17q-8 26 -23.5 48t-35 38t-41.5 25.5t-45 9.5q-40 0 -68 -23t-28 -56t29 -62q11 -11 38.5 -28.5t58.5 -37t60 -38t42 -32.5q33 -33 48.5 -65t15.5 -70q0 -48 -19 -81t-47.5 -52.5t-61.5 -28t-60 -8.5q-26 0 -47.5 3.5t-39 8t-31.5 8t-25 3.5q-20 0 -30 -19h-17
v176h17q13 -66 53.5 -106.5t103.5 -40.5q48 0 78 23.5t30 59.5q0 14 -6.5 32t-23.5 35t-43 33.5t-54 33.5t-55 34.5t-45 35.5q-26 26 -39 57.5t-13 66.5q0 38 13.5 69.5t38 54t58.5 35t74 12.5q17 0 31.5 -2.5t28.5 -5.5t26.5 -5.5t23.5 -2.5q14 0 30 16h17v-154z" />
    <glyph glyph-name="T" unicode="T" horiz-adv-x="563" 
d="M143 0v17q23 5 37.5 11t22.5 16.5t11 25t3 35.5v447h-59q-53 0 -84 -22.5t-46 -73.5h-17l6 141h18q10 -6 27 -9t31 -3h377q14 0 30.5 2.5t27.5 9.5h18l6 -141h-17q-15 51 -46 73.5t-84 22.5h-59v-448q0 -43 15 -61t57 -26v-17h-275z" />
    <glyph glyph-name="U" unicode="U" horiz-adv-x="719" 
d="M619 99q0 -19 3 -32.5t11 -22.5t22.5 -15t37.5 -12v-17h-203v78q-27 -27 -49.5 -45t-44 -28.5t-44.5 -15t-50 -4.5q-93 0 -147 52.5t-54 141.5v307q0 20 -3 33t-11 22t-22.5 15t-37.5 12v17h277v-17q-24 -6 -38.5 -12.5t-22.5 -16.5t-10.5 -24t-2.5 -34v-327
q0 -54 29.5 -84.5t80.5 -30.5q38 0 73.5 19.5t76.5 61.5v366q0 20 -3 33t-11 22t-22.5 15t-37.5 12v17h277v-17q-26 -6 -41 -13.5t-22.5 -18.5t-9 -26t-1.5 -36v-375z" />
    <glyph glyph-name="V" unicode="V" horiz-adv-x="615" 
d="M320 -15h-19l-185 469q-12 32 -22.5 52.5t-22 33t-25.5 19t-33 9.5v17h266v-17q-22 -4 -33 -11.5t-14.5 -18.5t-0.5 -25t9 -29l117 -297l104 281q7 18 9 34.5t-3.5 29.5t-19.5 22.5t-40 13.5v17h194v-17q-43 -9 -63.5 -36t-37.5 -72z" />
    <glyph glyph-name="W" unicode="W" horiz-adv-x="927" 
d="M651 -15h-18l-170 461h-2l-155 -461h-17l-182 489q-11 29 -19.5 46.5t-18.5 27.5t-23 14.5t-32 5.5v17h252v-17q-34 -7 -37 -29.5t7 -51.5l104 -282h2l100 296q-8 18 -15 29.5t-16 19t-21.5 11.5t-30.5 7v17h249v-17q-27 -8 -34 -26t2 -41l109 -296h2l81 241
q9 26 13 46.5t1 35.5t-14.5 25.5t-35.5 14.5v17h182v-17q-35 -4 -61 -35t-49 -98z" />
    <glyph glyph-name="X" unicode="X" horiz-adv-x="667" 
d="M560 89l21 -28t19 -20.5t22.5 -14t31.5 -9.5v-17h-291v17q42 1 50 25.5t-16 59.5l-91 133l-80 -103q-15 -19 -23.5 -37t-9 -34t9 -27.5t31.5 -16.5v-17h-213v17q42 3 77.5 30.5t70.5 73.5l112 148l-157 227q-25 36 -47 51.5t-56 20.5v17h285v-17q-19 -2 -28.5 -10
t-11 -19t2.5 -23.5t12 -24.5l82 -117l81 110q20 27 17 51.5t-45 32.5v17h203v-17q-20 0 -39.5 -9.5t-37.5 -24t-34 -33t-30 -36.5l-93 -124z" />
    <glyph glyph-name="Y" unicode="Y" horiz-adv-x="615" 
d="M377 99q0 -39 15.5 -56.5t58.5 -25.5v-17h-277v17q42 6 58 26t16 60v171l-152 233q-22 33 -38.5 45.5t-44.5 15.5v17h267v-17q-69 -3 -26 -71l101 -156l89 128q24 35 20.5 62t-44.5 37v17h181v-17q-45 -5 -86 -63l-138 -197v-209z" />
    <glyph glyph-name="Z" unicode="Z" horiz-adv-x="615" 
d="M572 0h-555v17l395 535h-221q-27 0 -46.5 -5t-34.5 -18t-27 -35t-24 -56h-17l17 147h520v-16l-394 -536h228q32 0 55 4.5t42 17.5t35 36.5t34 61.5h18z" />
    <glyph glyph-name="bracketleft" unicode="[" horiz-adv-x="365" 
d="M336 615v-23h-44q-86 0 -86 -63v-18v-700v-18q2 -34 21.5 -49t64.5 -15h44v-23h-243v909h243z" />
    <glyph glyph-name="backslash" unicode="\" horiz-adv-x="531" 
d="M450 -15h-73l-296 606h73z" />
    <glyph glyph-name="bracketright" unicode="]" horiz-adv-x="365" 
d="M272 -294h-243v23h44q86 0 86 64v18v700v18q0 34 -20.5 48.5t-65.5 14.5h-44v23h243v-909z" />
    <glyph glyph-name="asciicircum" unicode="^" horiz-adv-x="581" 
d="M270 677h41l198 -351h-74l-145 250l-144 -250h-74z" />
    <glyph glyph-name="underscore" unicode="_" horiz-adv-x="500" 
d="M-8 -125v50h517v-50h-517z" />
    <glyph glyph-name="grave" unicode="`" horiz-adv-x="333" 
d="M169 620l62 -168h-17l-225 168h180z" />
    <glyph glyph-name="a" unicode="a" 
d="M372 73q0 -50 23 -50q24 0 30 35h16q-3 -35 -26.5 -54t-65.5 -19q-35 0 -56 12t-35 41l-9 -8q-29 -26 -56.5 -35.5t-62.5 -9.5q-23 0 -43.5 7.5t-36 21t-24.5 31.5t-9 39q0 38 25 60.5t61.5 37t79 24t76.5 22.5q0 51 -21.5 75t-72.5 24q-77 0 -113 -63h-15q15 61 59 94.5
t110 33.5q30 0 60 -7.5t53.5 -24t38 -43.5t14.5 -66v-178zM258 208q-35 -15 -58.5 -27.5t-38 -25.5t-20.5 -27.5t-6 -33.5q0 -31 14.5 -49.5t37.5 -18.5q32 0 71 39v143z" />
    <glyph glyph-name="b" unicode="b" horiz-adv-x="552" 
d="M190 323q66 69 145 69q38 0 71 -15t57 -41t38 -62t14 -77q0 -43 -14 -82t-44 -67.5t-78.5 -45.5t-117.5 -17q-54 0 -97.5 3.5t-86.5 11.5v542q0 24 -15.5 37.5t-41.5 18.5v17l153 11h17v-303zM190 75q0 -32 13 -47.5t47 -15.5q63 0 101.5 40.5t38.5 132.5
q0 69 -30.5 112.5t-81.5 43.5q-23 0 -41 -9.5t-47 -35.5v-221z" />
    <glyph glyph-name="c" unicode="c" horiz-adv-x="469" 
d="M441 255h-17q-28 59 -61 86.5t-78 27.5q-58 0 -91 -44.5t-33 -122.5q0 -80 36.5 -125t102.5 -45q42 0 70.5 15.5t61.5 55.5h20q-56 -118 -203 -118q-48 0 -87 14t-67 40t-43.5 62t-15.5 80q0 45 17 83.5t47.5 67t72 44.5t89.5 16q20 0 38 -2t33 -4q16 -2 29 -4t24 -2
t16 2t14 10h16z" />
    <glyph glyph-name="d" unicode="d" horiz-adv-x="573" 
d="M482 103q0 -24 2.5 -38.5t11 -24t23 -14.5t38.5 -9v-17h-282q-69 0 -115.5 17t-74.5 45t-39.5 62.5t-11.5 69.5q0 44 14.5 80.5t41 62.5t63 40.5t81.5 14.5q78 0 135 -38v173q0 37 -19.5 53t-73.5 18v17l189 11h17v-523zM369 304q-20 29 -47.5 45t-58.5 16q-48 0 -76 -44
t-28 -120q0 -52 14.5 -86.5t35.5 -54.5t46 -28.5t46 -8.5q38 0 53 19t15 67v195z" />
    <glyph glyph-name="e" unicode="e" horiz-adv-x="469" 
d="M159 222q-2 -46 8.5 -81.5t30 -59t44.5 -35.5t51 -12q81 0 135 82h17q-26 -61 -79.5 -96t-122.5 -35q-44 0 -82 15t-65.5 42t-43 64t-15.5 80q0 44 16 81.5t44.5 65.5t66.5 43.5t83 15.5q81 0 134 -46t64 -124h-286zM323 245q-3 53 -26 86.5t-58 33.5t-56.5 -33
t-23.5 -87h164z" />
    <glyph glyph-name="f" unicode="f" horiz-adv-x="313" 
d="M285 346h-84v-243q0 -25 2.5 -39.5t10.5 -23.5t23.5 -13.5t41.5 -9.5v-17h-263v17q24 3 38.5 9t22 16t9.5 24.5t2 35.5v244h-60v14q29 7 42 19t18 29t5.5 37.5t3.5 43t12.5 46t32.5 46.5q18 18 54 31.5t93 13.5q84 0 136 -42l-80 -97h-16q2 29 -3.5 50.5t-15.5 35
t-22.5 20t-24.5 6.5q-62 0 -62 -110v-112h84v-31z" />
    <glyph glyph-name="g" unicode="g" horiz-adv-x="510" 
d="M480 322l-96 7l-2 -2q28 -23 39.5 -45.5t11.5 -50.5t-12.5 -53t-36 -44t-57.5 -30t-76 -11q-57 0 -89 -8t-32 -32q0 -15 17 -22.5t44.5 -12t62 -7t69 -9t66.5 -18.5t54 -34q19 -19 27.5 -41t8.5 -41q0 -33 -15.5 -63.5t-47 -54.5t-79 -38.5t-110.5 -14.5q-48 0 -88 8.5
t-68.5 24t-44.5 37t-16 47.5q0 18 9.5 36t29.5 33.5t50.5 27t71.5 15.5v2q-43 4 -69 13t-40 21t-18.5 26.5t-4.5 29.5q0 33 28 51t95 33v2q-66 20 -96 52t-30 81q0 33 14 61t39 49t60.5 33t77.5 12q17 0 34 -1t22 -1h197v-68zM149 241q0 -56 23.5 -88.5t62.5 -32.5
q35 0 60 29t25 95q0 62 -24 91t-57 29q-90 0 -90 -123zM102 -145q0 -27 23.5 -45t57 -29.5t71 -16t65.5 -4.5q42 0 69 17.5t27 44.5q0 28 -24.5 46t-58 28t-69 13.5t-57.5 3.5q-48 0 -76 -16t-28 -42z" />
    <glyph glyph-name="h" unicode="h" horiz-adv-x="563" 
d="M199 301h2q30 49 63 70t78 21q62 0 97.5 -38.5t35.5 -105.5v-163q0 -26 10.5 -43t48.5 -25v-17h-231v17q33 9 46 24t13 47v152q0 91 -68 91q-30 0 -51.5 -17t-43.5 -45v-186q0 -28 12.5 -43t47.5 -23v-17h-230v17q32 8 44.5 23.5t12.5 47.5v448q0 27 -12.5 40.5
t-44.5 21.5v17l153 11h17v-325z" />
    <glyph glyph-name="i" unicode="i" horiz-adv-x="292" 
d="M206 81q0 -57 61 -64v-17h-237v17q38 8 50.5 22t12.5 50v201q0 35 -13.5 48.5t-54.5 21.5v17l164 14h17v-310zM84 561q0 27 19.5 46t46.5 19t46 -19t19 -46t-19 -46.5t-46 -19.5t-46.5 19.5t-19.5 46.5z" />
    <glyph glyph-name="j" unicode="j" horiz-adv-x="292" 
d="M92 300q0 27 -15.5 40.5t-56.5 19.5v17l168 15h17v-433q0 -51 -10 -89.5t-37 -66.5q-21 -21 -59 -36.5t-86 -15.5q-12 0 -22 1t-22 4v16q66 -1 94.5 33.5t28.5 117.5v377zM84 561q0 27 19.5 46t46.5 19t46 -19t19 -46t-19 -46.5t-46 -19.5t-46.5 19.5t-19.5 46.5z" />
    <glyph glyph-name="k" unicode="k" horiz-adv-x="563" 
d="M86 539q0 26 -12.5 38.5t-44.5 20.5v17l153 11h17v-423l134 97q9 7 13 17t1 19.5t-12.5 16.5t-27.5 7v17h208v-17q-18 -3 -32.5 -6t-27.5 -8.5t-27 -14t-32 -21.5l-99 -70l178 -186q19 -20 32.5 -27.5t37.5 -9.5v-17h-172l-174 180v-86q0 -20 2 -32t8 -20t17 -13.5
t30 -11.5v-17h-227v17q33 9 45 23t12 42v457z" />
    <glyph glyph-name="l" unicode="l" horiz-adv-x="292" 
d="M91 523q0 40 -15 56.5t-56 18.5v17l167 11h17v-534q0 -19 2.5 -31t10 -20.5t20.5 -13.5t34 -10v-17h-251v17q42 7 56.5 23t14.5 52v431z" />
    <glyph glyph-name="m" unicode="m" horiz-adv-x="802" 
d="M716 91q0 -32 11 -48t48 -26v-17h-232v17q33 8 46.5 23t13.5 41v181q0 31 -17.5 49.5t-43.5 18.5q-29 0 -50.5 -21.5t-33.5 -59.5v-164q0 -29 12 -44t47 -24v-17h-232v17q31 8 45.5 22t14.5 41v189q0 29 -18 45t-40 16q-50 0 -87 -66v-173q0 -32 10.5 -48t49.5 -26v-17
h-232v17q34 8 46.5 23t12.5 44v202q0 37 -13.5 51.5t-54.5 22.5v17l164 14h17v-92h2q22 46 56 69.5t77 23.5q95 0 123 -93q29 50 60 71.5t76 21.5q59 0 90.5 -36t31.5 -102v-163z" />
    <glyph glyph-name="n" unicode="n" horiz-adv-x="563" 
d="M364 241q0 43 -18.5 66.5t-51.5 23.5q-58 0 -94 -66v-176q0 -29 9.5 -45t46.5 -27v-17h-228v17q33 8 46 22t13 43v211q0 33 -15 47.5t-53 19.5v17l164 14h17v-91h2q24 41 59.5 66.5t83.5 25.5q21 0 44.5 -7.5t43 -24t32 -42.5t12.5 -63v-165q0 -30 10 -46.5t49 -26.5v-17
h-232v17q34 8 47 23t13 45v156z" />
    <glyph glyph-name="o" unicode="o" horiz-adv-x="542" 
d="M506 189q0 -37 -14.5 -74t-44 -65.5t-73.5 -46.5t-103 -18t-103 17.5t-73.5 46.5t-44.5 65.5t-15 74.5q0 29 11.5 64.5t39 66.5t73 51.5t112.5 20.5q61 0 105.5 -18.5t73 -48t42.5 -65.5t14 -71zM381 189q0 80 -27 128t-83 48q-30 0 -51 -13.5t-34.5 -38t-19.5 -58
t-6 -73.5q0 -78 30 -124t81 -46q53 0 81.5 47t28.5 130z" />
    <glyph glyph-name="p" unicode="p" horiz-adv-x="573" 
d="M91 279q0 19 -2 32.5t-9 22.5t-20.5 15t-36.5 11v17l164 15h17v-73q64 73 152 73q38 0 70.5 -15t56.5 -41.5t37.5 -63t13.5 -79.5q0 -45 -15 -83.5t-41 -66t-62.5 -43t-79.5 -15.5q-18 0 -33 2.5t-30 8.5t-31.5 17t-37.5 27v-238q0 -20 3 -33t10.5 -22t21.5 -15t35 -10
v-16h-251v17q21 3 34.5 8.5t21 16t10 27.5t2.5 43v461zM204 67q23 -23 45 -33.5t48 -10.5q51 0 81.5 43t30.5 115q0 75 -29 118t-80 43q-28 0 -50.5 -11.5t-45.5 -38.5v-225z" />
    <glyph glyph-name="q" unicode="q" horiz-adv-x="573" 
d="M374 35q-24 -14 -43.5 -23.5t-37 -15.5t-34 -8.5t-34.5 -2.5q-45 0 -79 15t-57 41t-35 61.5t-12 76.5q0 30 10.5 67.5t39.5 69.5t80 54t132 22q50 0 98.5 -5t84.5 -10v-584q0 -35 12 -48.5t48 -21.5v-17h-249v17q25 3 40 9.5t23 16t10.5 22.5t2.5 28v236zM374 352
q-17 7 -31 10t-32 3q-70 0 -107 -45t-37 -130q0 -75 31 -116t88 -41q23 0 42.5 6.5t45.5 22.5v290z" />
    <glyph glyph-name="r" unicode="r" horiz-adv-x="406" 
d="M368 246q-25 24 -45 36.5t-40 12.5q-26 0 -44 -12t-40 -42v-154q0 -17 2.5 -28.5t9 -19.5t19 -13t33.5 -9v-17h-240v17q38 9 50.5 23.5t12.5 46.5v199q0 36 -16.5 53.5t-52.5 20.5v17l165 15h17v-120h2q28 62 59 91t66 29q40 0 67 -32z" />
    <glyph glyph-name="s" unicode="s" horiz-adv-x="365" 
d="M310 274h-17q-17 43 -47.5 67t-68.5 24q-26 0 -44.5 -11.5t-18.5 -30.5q0 -20 16 -32.5t40.5 -22.5t53 -20.5t53 -27t40.5 -41.5t16 -64q0 -30 -12.5 -54.5t-32.5 -41t-44 -25.5t-47 -9q-18 0 -33.5 2t-28.5 5q-14 2 -24.5 4t-19.5 2q-22 0 -35 -13h-17v146h17
q57 -119 137 -119q27 0 47 16t20 39q0 25 -16.5 40.5t-41 27t-53.5 22t-53.5 25.5t-41 37t-16.5 58q0 23 9 43.5t26 36.5t41.5 25.5t55.5 9.5q13 0 28.5 -1.5t29.5 -3.5t25.5 -4t16.5 -2q7 0 13 3.5t10 6.5h17v-117z" />
    <glyph glyph-name="t" unicode="t" horiz-adv-x="344" 
d="M87 347h-68v19q35 22 78.5 64t83.5 93h19v-146h124v-30h-124v-217q0 -46 14.5 -71.5t54.5 -25.5q29 0 55 30l12 -11q-21 -35 -50 -51t-71 -16q-27 0 -50 6.5t-40.5 21t-27.5 37.5t-10 55v242z" />
    <glyph glyph-name="u" unicode="u" horiz-adv-x="563" 
d="M83 295q0 32 -12.5 45.5t-46.5 19.5v17l155 15h17v-278q0 -34 19.5 -50t50.5 -16q29 0 49 14.5t45 53.5v188q0 45 -59 56v17l155 15h17v-300q0 -19 2.5 -31t9 -20.5t18 -13.5t30.5 -10v-17l-173 -15v92h-2q-32 -48 -68 -70t-82 -22q-59 0 -92 30.5t-33 84.5v195z" />
    <glyph glyph-name="v" unicode="v" horiz-adv-x="500" 
d="M259 -15h-21l-142 293q-22 45 -41.5 62.5t-51.5 19.5v17h235v-17q-30 -6 -34 -24t5 -37l87 -176l68 140q19 38 14.5 66t-45.5 31v17h152v-17q-28 -3 -48 -23t-42 -66z" />
    <glyph glyph-name="w" unicode="w" horiz-adv-x="760" 
d="M531 -15h-20l-135 297l-127 -297h-20l-136 297q-20 45 -39.5 61.5t-49.5 16.5v17h245v-17q-18 -1 -28 -9t-13.5 -19.5t-1 -25t8.5 -27.5l68 -145l79 179q-11 20 -26 31t-40 16v17h230v-17q-29 -11 -37 -26.5t5 -43.5l73 -156l53 123q18 43 12.5 72t-40.5 31v17h153v-17
q-31 -8 -52.5 -30t-38.5 -61z" />
    <glyph glyph-name="x" unicode="x" horiz-adv-x="552" 
d="M446 67q23 -28 40.5 -38t44.5 -12v-17h-260v17q29 2 36.5 17.5t-10.5 38.5l-62 79l-56 -54q-25 -23 -23 -48t34 -33v-17h-182v17q17 2 32 6.5t30.5 14t33 24t38.5 36.5l74 76l-82 101q-21 26 -36.5 42t-29 25.5t-25.5 13t-26 4.5v17h254v-17q-12 0 -19 -6t-9 -14
t0.5 -17.5t8.5 -16.5l57 -70l48 49q21 21 21 43.5t-29 31.5v17h167v-17q-32 -7 -58 -22.5t-61 -52.5l-70 -72z" />
    <glyph glyph-name="y" unicode="y" horiz-adv-x="500" 
d="M206 -171q-30 -69 -66 -97t-95 -28h-14.5t-17.5 2l23 114q18 -6 29 -7.5t22 -1.5q53 0 87.5 40.5t68.5 133.5l-138 291q-9 19 -17 32.5t-17.5 23.5t-23 16.5t-34.5 11.5v17h230v-17q-32 -5 -34.5 -22.5t14.5 -53.5l80 -165l52 121q26 60 18.5 86t-43.5 34v17h157v-17
q-18 -5 -30 -11t-22 -16.5t-18.5 -27t-20.5 -42.5z" />
    <glyph glyph-name="z" unicode="z" 
d="M280 350h-52q-63 0 -108.5 -26.5t-69.5 -61.5h-17l10 115h384v-17l-256 -333h56q81 0 127 28t67 75h17l-11 -130h-402v17z" />
    <glyph glyph-name="braceleft" unicode="{" horiz-adv-x="394" 
d="M90 168q51 7 81 36t30 69q0 21 -3 36.5t-8 32.5q-4 17 -7.5 36t-3.5 47q0 36 13.5 67.5t38.5 57t59 42t74 22.5l-4 -18q-108 -27 -108 -116q0 -17 3.5 -34.5t7.5 -36.5q5 -19 8 -38.5t3 -42.5q0 -55 -38 -99.5t-106 -67.5v-2q68 -23 106 -67.5t38 -99.5q0 -22 -3 -42
t-8 -39q-4 -19 -7.5 -36.5t-3.5 -34.5q0 -89 108 -116l4 -18q-40 6 -74 22.5t-59 42t-38.5 57t-13.5 67.5q0 28 3.5 47t7.5 36q5 17 8 33t3 36q0 40 -30 69t-81 36v16z" />
    <glyph glyph-name="bar" unicode="|" horiz-adv-x="527" 
d="M296 626v-831h-65v831h65z" />
    <glyph glyph-name="braceright" unicode="}" horiz-adv-x="394" 
d="M304 152q-51 -7 -81 -36t-30 -69q0 -20 3.5 -36t7.5 -33q5 -17 8 -36t3 -47q0 -36 -13.5 -67.5t-38.5 -57t-58.5 -42t-74.5 -22.5l4 18q108 27 108 116q0 17 -3 34.5t-8 36.5q-4 19 -7.5 39t-3.5 42q0 55 38 99.5t106 67.5v2q-68 23 -106 67.5t-38 99.5q0 23 3.5 42.5
t7.5 38.5q5 19 8 36.5t3 34.5q0 89 -108 116l-4 18q41 -6 74.5 -22.5t58.5 -42t38.5 -57t13.5 -67.5q0 -28 -3 -47t-8 -36q-4 -17 -7.5 -32.5t-3.5 -36.5q0 -40 30 -69t81 -36v-16z" />
    <glyph glyph-name="asciitilde" unicode="~" horiz-adv-x="667" 
d="M602 407q-4 -79 -40 -123.5t-97 -44.5q-35 0 -74 13.5t-78 30.5q-38 17 -72.5 30.5t-60.5 13.5q-70 0 -84 -87h-31q1 83 39 125.5t94 42.5q37 0 77 -13.5t79 -30.5q38 -17 72.5 -31t59.5 -14q36 0 58 23t27 65h31z" />
    <glyph glyph-name="exclamdown" unicode="&#xa1;" horiz-adv-x="260" 
d="M140 128q18 -103 26 -175t12 -118t7 -70t12 -33t21.5 -9t23.5 2v-17q-20 -5 -55.5 -8t-67.5 -3t-44.5 9.5t-12.5 32.5q0 22 7.5 66.5t18 99.5t21 114t16.5 109h15zM129 190q-31 0 -52.5 21.5t-21.5 52.5t21.5 52.5t52.5 21.5t52.5 -21.5t21.5 -52.5t-21.5 -52.5
t-52.5 -21.5z" />
    <glyph glyph-name="cent" unicode="&#xa2;" 
d="M346 383q15 -2 24.5 -3t17.5 0q14 3 23 12h16l9 -137h-17q-36 76 -82 100l-97 -313q25 -10 55 -10q42 0 70.5 15.5t61.5 55.5h20q-31 -64 -83.5 -94.5t-141.5 -22.5l-93 -295h-28l95 298q-37 6 -68 23t-52.5 42t-33.5 57.5t-12 69.5q0 45 17.5 84t48 67t72.5 44t91 16
q14 0 33.5 -1.5t29.5 -3.5l75 235h24zM315 364q-10 3 -18 4t-17 1q-58 0 -91.5 -45t-33.5 -123q0 -101 62 -146z" />
    <glyph glyph-name="sterling" unicode="&#xa3;" 
d="M329 235h-102q-2 -20 -4 -34t-4.5 -26t-6.5 -23.5t-10 -25.5q31 -9 53 -16.5t40 -13t33 -8.5t32 -3q24 0 38.5 10.5t26.5 43.5h16q0 -33 -10.5 -61t-27.5 -48.5t-41 -32.5t-51 -12q-36 0 -66 17t-69 59q-43 -76 -106 -76q-29 0 -48.5 17.5t-19.5 43.5q0 19 9.5 37.5
t27.5 32t45 20.5t61 3q0 23 -2.5 48t-8.5 48h-98v36h91q-14 44 -19.5 73.5t-5.5 59.5q0 37 11.5 67.5t32 52.5t49 34.5t62.5 12.5q53 0 89.5 -32t49.5 -85h-19q-13 30 -35 46.5t-48 16.5q-37 0 -57 -26.5t-20 -76.5q0 -37 5 -69t5 -74h102v-36zM145 84q-17 10 -27.5 13.5
t-24.5 3.5q-28 0 -48 -16t-20 -39q0 -17 11.5 -27t28.5 -10q23 0 44.5 20t35.5 55z" />
    <glyph glyph-name="currency" unicode="&#xa4;" horiz-adv-x="684" 
d="M341 482q-33 0 -62 -12.5t-50 -33.5t-33.5 -50t-12.5 -62t12.5 -62t33.5 -50.5t50 -34t62 -12.5t62 12.5t50.5 34t34 50.5t12.5 62t-12.5 62t-34 50t-50.5 33.5t-62 12.5zM341 544q38 0 70 -11t63 -33l62 62l44 -44l-62 -62q22 -33 32.5 -62.5t10.5 -69.5
q0 -36 -10.5 -69.5t-33.5 -62.5l63 -63l-44 -44l-62 62q-32 -23 -63 -33.5t-70 -10.5q-38 0 -69.5 10.5t-62.5 33.5l-62 -62l-44 44l62 62q-45 60 -45 133q0 36 11 70t34 62l-62 62l44 44l62 -62q29 23 62.5 33.5t69.5 10.5z" />
    <glyph glyph-name="yen" unicode="&#xa5;" horiz-adv-x="615" 
d="M377 195h200v-33h-200v-63q0 -39 15.5 -56.5t58.5 -25.5v-17h-277v17q42 6 58 26t16 60v59h-200v33h200v100h-200v33h177l-115 179q-20 32 -37.5 45t-45.5 16v17h267v-17q-35 -2 -40.5 -20.5t14.5 -50.5l85 -136h4l77 115q21 30 16 56.5t-44 35.5v17h181v-17
q-44 -5 -86 -63l-124 -177h200v-33h-200v-100z" />
    <glyph glyph-name="brokenbar" unicode="&#xa6;" horiz-adv-x="527" 
d="M296 148v-353h-65v353h65zM296 626v-354h-65v354h65z" />
    <glyph glyph-name="section" unicode="&#xa7;" 
d="M315 -8q45 -41 67 -76.5t22 -77.5q0 -32 -13.5 -59t-38 -46.5t-58 -30.5t-72.5 -11q-34 0 -63 8.5t-50.5 23.5t-33.5 35t-12 43t16 38.5t40 15.5q23 0 38.5 -13.5t15.5 -33.5q0 -12 -3.5 -18.5t-7.5 -11t-7.5 -8t-3.5 -9.5q0 -19 22.5 -31t57.5 -12q43 0 70 18t27 50
q0 31 -22 57.5t-55 51t-72 50t-72 56t-55 67t-22 83.5q0 51 30 97.5t84 78.5q-43 34 -65.5 72.5t-22.5 79.5q0 31 14 58t38 46.5t56.5 31t70.5 11.5q34 0 63.5 -8.5t51 -22.5t34 -33.5t12.5 -41.5q0 -25 -14.5 -39.5t-40.5 -14.5q-22 0 -38.5 14t-16.5 32q0 9 3.5 16t8 12.5
t8 10.5t3.5 10q0 17 -23 27t-55 10q-45 0 -72 -17.5t-27 -47.5q0 -32 22 -59t55 -52t71 -50.5t71 -55.5t55 -66.5t22 -83.5q0 -52 -27.5 -94.5t-85.5 -79.5zM298 5q31 27 45 50.5t14 47.5q0 21 -10.5 41t-33.5 44t-60.5 54t-91.5 70q-26 -18 -43 -43.5t-17 -54.5
q0 -26 15 -49t41 -47.5t62 -51.5t79 -61z" />
    <glyph glyph-name="dieresis" unicode="&#xa8;" horiz-adv-x="333" 
d="M72 598q27 0 46.5 -19.5t19.5 -46.5t-19.5 -46.5t-46.5 -19.5t-46.5 19.5t-19.5 46.5t19.5 46.5t46.5 19.5zM262 598q27 0 46.5 -19.5t19.5 -46.5t-19.5 -46.5t-46.5 -19.5t-46.5 19.5t-19.5 46.5t19.5 46.5t46.5 19.5z" />
    <glyph glyph-name="copyright" unicode="&#xa9;" horiz-adv-x="747" 
d="M553 417h-19q-35 115 -148 115q-72 0 -114 -51t-42 -139q0 -53 12 -91t34 -62.5t51.5 -36t63.5 -11.5q96 0 152 79l19 -10q-68 -99 -188 -99q-48 0 -89.5 16.5t-71.5 46t-47.5 69t-17.5 85.5q0 48 18.5 89.5t51 71.5t77 47.5t96.5 17.5q23 0 39.5 -3.5t29.5 -7.5
t22.5 -7.5t17.5 -3.5t13.5 4.5t10.5 17.5h19zM373 677q72 0 135 -27t110 -74t74 -110t27 -135t-27 -135t-74 -110t-110 -74t-135 -27t-135 27t-110 74t-74 110t-27 135t27 135t74 110t110 74t135 27zM373 15q66 0 123.5 25t100 67.5t67.5 100t25 123.5t-25 123.5t-67.5 100
t-100 67.5t-123.5 25t-123.5 -25t-100 -67.5t-67.5 -100t-25 -123.5t25 -123.5t67.5 -100t100 -67.5t123.5 -25z" />
    <glyph glyph-name="ordfeminine" unicode="&#xaa;" horiz-adv-x="333" 
d="M307 404q-3 -50 -66 -50q-45 0 -63 28q-20 -15 -37.5 -21.5t-40.5 -6.5q-31 0 -53 18t-22 43q0 32 34 50t119 37q0 29 -11.5 42t-41.5 13q-46 0 -69 -40l-20 6q11 37 40 57t74 20q47 0 79.5 -20t32.5 -62v-108q0 -27 10 -27t14 21h21zM178 483q-21 -8 -34 -14.5
t-20 -13.5t-9.5 -15t-2.5 -20q0 -16 7.5 -25.5t20.5 -9.5q18 0 38 19v79z" />
    <glyph glyph-name="guillemotleft" unicode="&#xab;" 
d="M436 -46h-20l-204 205l204 205h20l-96 -205zM232 -46h-20l-204 205l204 205h20l-96 -205z" />
    <glyph glyph-name="logicalnot" unicode="&#xac;" horiz-adv-x="667" 
d="M599 472v-293h-62v231h-470v62h532z" />
    <glyph glyph-name="registered" unicode="&#xae;" horiz-adv-x="747" 
d="M369 544q66 0 106 -30t40 -80q0 -81 -109 -108l102 -146q17 -24 29 -32t30 -10v-17h-90l-144 198h-36v-139q0 -24 11 -33t46 -9v-17h-179v17q26 0 38.5 9.5t12.5 34.5v298q0 26 -9.5 36.5t-35.5 10.5v17h188zM311 340q60 0 92.5 23.5t32.5 65.5q0 41 -28 67t-71 26
q-11 0 -19 -1.5t-21 -5.5v-175h14zM373 677q72 0 135 -27t110 -74t74 -110t27 -135t-27 -135t-74 -110t-110 -74t-135 -27t-135 27t-110 74t-74 110t-27 135t27 135t74 110t110 74t135 27zM373 15q66 0 123.5 25t100 67.5t67.5 100t25 123.5t-25 123.5t-67.5 100t-100 67.5
t-123.5 25t-123.5 -25t-100 -67.5t-67.5 -100t-25 -123.5t25 -123.5t67.5 -100t100 -67.5t123.5 -25z" />
    <glyph glyph-name="macron" unicode="&#xaf;" horiz-adv-x="333" 
d="M331 619v-82h-329v82h329z" />
    <glyph glyph-name="degree" unicode="&#xb0;" horiz-adv-x="400" 
d="M369 498q0 -35 -13.5 -65.5t-36.5 -53.5t-53.5 -36.5t-65.5 -13.5t-65.5 13.5t-53.5 36.5t-36.5 53.5t-13.5 65.5t13.5 65.5t36.5 53.5t53.5 36.5t65.5 13.5t65.5 -13.5t53.5 -36.5t36.5 -53.5t13.5 -65.5zM307 498q0 22 -8.5 41.5t-23 34t-34 23t-41.5 8.5t-41.5 -8.5
t-34 -23t-23 -34t-8.5 -41.5t8.5 -41.5t23 -34t34 -23t41.5 -8.5t41.5 8.5t34 23t23 34t8.5 41.5z" />
    <glyph glyph-name="plusminus" unicode="&#xb1;" horiz-adv-x="667" 
d="M599 42v-62h-532v62h532zM302 437v235h62v-235h235v-62h-235v-235h-62v235h-235v62h235z" />
    <glyph glyph-name="twosuperior" unicode="&#xb2;" horiz-adv-x="313" 
d="M279 288h-247v17q48 35 79 63t48.5 51.5t24.5 43t7 35.5q0 27 -14.5 44t-38.5 17q-23 0 -39.5 -14.5t-21.5 -39.5h-19q5 45 33.5 70t73.5 25t76 -24.5t31 -60.5q0 -45 -43.5 -85.5t-118.5 -93.5v-2h169v-46z" />
    <glyph glyph-name="threesuperior" unicode="&#xb3;" horiz-adv-x="313" 
d="M59 553q13 22 38.5 34.5t57.5 12.5q41 0 67 -20.5t26 -51.5q0 -24 -16.5 -42t-53.5 -32v-2q83 -16 83 -81q0 -39 -33.5 -65t-86.5 -26q-65 0 -102 43l10 10q17 -14 34 -20t35 -6q26 0 42.5 17t16.5 43q0 15 -6 29.5t-18 24.5t-30 15t-43 0v12q48 8 69 25.5t21 44.5
q0 22 -14.5 36.5t-35.5 14.5q-11 0 -22 -5.5t-28 -19.5z" />
    <glyph glyph-name="acute" unicode="&#xb4;" horiz-adv-x="333" 
d="M119 452h-17l62 168h180z" />
    <glyph glyph-name="mu" unicode="&#xb5;" horiz-adv-x="500" 
d="M52 392h113v-282q0 -31 20.5 -46.5t49.5 -15.5t48.5 14.5t45.5 53.5v276h113v-300q0 -19 2.5 -31t9 -20.5t18 -13.5t30.5 -10v-17l-173 -15v92h-2q-32 -48 -68 -70t-84 -22q-19 0 -34.5 4t-38.5 15q0 -26 5 -46t11.5 -37.5t11.5 -33t5 -31.5q0 -22 -17 -35t-48 -13
q-27 0 -43.5 13t-16.5 34q0 24 6.5 39.5t14.5 34t14.5 46.5t6.5 77v340z" />
    <glyph glyph-name="paragraph" unicode="&#xb6;" horiz-adv-x="540" 
d="M436 -216h-36v851h-91v-851h-36v509q-49 2 -91.5 11t-74 30t-50 56t-18.5 89q0 83 57 133t163 50h241v-27h-64v-851z" />
    <glyph glyph-name="periodcentered" unicode="&#xb7;" horiz-adv-x="260" 
d="M130 381q31 0 52.5 -21.5t21.5 -52.5t-21.5 -52.5t-52.5 -21.5t-52.5 21.5t-21.5 52.5t21.5 52.5t52.5 21.5z" />
    <glyph glyph-name="cedilla" unicode="&#xb8;" horiz-adv-x="333" 
d="M175 -53q42 0 69 -24.5t27 -60.5q0 -29 -14 -54t-38.5 -43t-59 -29t-76.5 -12l5 18q48 5 74.5 29t26.5 53q0 23 -16 36t-51 18l53 139h23z" />
    <glyph glyph-name="onesuperior" unicode="&#xb9;" horiz-adv-x="313" 
d="M196 343q0 -25 6 -31.5t30 -11.5v-12h-148v12q23 2 29.5 10t6.5 33v177q0 7 -1.5 12t-6.5 5t-18.5 -3t-28.5 -3v11q34 8 59.5 22.5t54.5 35.5h17v-257z" />
    <glyph glyph-name="ordmasculine" unicode="&#xba;" horiz-adv-x="406" 
d="M360 477q0 -26 -12 -48.5t-33 -39t-49.5 -26t-62.5 -9.5t-62.5 9.5t-49.5 26t-33 39t-12 48.5t12 48.5t33 39t49.5 26t62.5 9.5q39 0 68.5 -11t49 -28t29.5 -39t10 -45zM268 477q0 48 -17 74t-48 26t-48 -26t-17 -74t17 -74.5t48 -26.5t48 26.5t17 74.5z" />
    <glyph glyph-name="guillemotright" unicode="&#xbb;" 
d="M226 364h20l204 -205l-204 -205h-20l96 205zM22 364h20l204 -205l-204 -205h-20l96 205z" />
    <glyph glyph-name="onequarter" unicode="&#xbc;" horiz-adv-x="792" 
d="M657 105h68v-33h-68v-78h-72v78h-125v14l180 226h17v-207zM516 105h69v90h-2zM196 343q0 -25 6 -31.5t30 -11.5v-12h-148v12q23 2 29.5 10t6.5 33v177q0 7 -1.5 12t-6.5 5t-18.5 -3t-28.5 -3v11q34 8 59.5 22.5t54.5 35.5h17v-257zM210 -8h-65l416 608h65z" />
    <glyph glyph-name="onehalf" unicode="&#xbd;" horiz-adv-x="792" 
d="M196 343q0 -25 6 -31.5t30 -11.5v-12h-148v12q23 2 29.5 10t6.5 33v177q0 7 -1.5 12t-6.5 5t-18.5 -3t-28.5 -3v11q34 8 59.5 22.5t54.5 35.5h17v-257zM210 -8h-65l416 608h65zM739 0h-247v17q48 35 79 63t48.5 51.5t24.5 43t7 35.5q0 27 -14.5 44t-38.5 17
q-23 0 -39.5 -14.5t-21.5 -39.5h-19q5 45 33.5 70t73.5 25t76 -24.5t31 -60.5q0 -45 -43.5 -85.5t-118.5 -93.5v-2h169v-46z" />
    <glyph glyph-name="threequarters" unicode="&#xbe;" horiz-adv-x="792" 
d="M59 553q13 22 38.5 34.5t57.5 12.5q41 0 67 -20.5t26 -51.5q0 -24 -16.5 -42t-53.5 -32v-2q83 -16 83 -81q0 -39 -33.5 -65t-86.5 -26q-65 0 -102 43l10 10q17 -14 34 -20t35 -6q26 0 42.5 17t16.5 43q0 15 -6 29.5t-18 24.5t-30 15t-43 0v12q48 8 69 25.5t21 44.5
q0 22 -14.5 36.5t-35.5 14.5q-11 0 -22 -5.5t-28 -19.5zM210 -8h-65l416 608h65zM657 -6h-72v78h-125v14l180 226h17v-207h68v-33h-68v-78zM516 105h69v90h-2z" />
    <glyph glyph-name="questiondown" unicode="&#xbf;" horiz-adv-x="365" 
d="M224 134q5 -14 7 -23.5t2 -20.5q0 -26 -15 -45.5t-33 -40t-33 -47t-15 -65.5q0 -23 8 -43.5t22.5 -35.5t33.5 -24t40 -9q25 0 43 10t35 33l14 -13q-14 -54 -53 -86.5t-89 -32.5q-32 0 -61 13.5t-50.5 37t-34.5 54t-13 64.5q0 41 15 80.5t43 67.5q20 20 40 31t37 23t28 28
t12 44h17zM208 184q-31 0 -52.5 21.5t-21.5 52.5t21.5 52.5t52.5 21.5t52.5 -21.5t21.5 -52.5t-21.5 -52.5t-52.5 -21.5z" />
    <glyph glyph-name="Agrave" unicode="&#xc0;" horiz-adv-x="667" 
d="M390 197h-208l-29 -78q-16 -42 -8.5 -65.5t55.5 -36.5v-17h-189v17q43 8 67 45t43 88l168 450h80l178 -468q24 -62 47.5 -87t61.5 -28v-17h-287v17q27 5 42 12t20.5 17.5t3 25t-10.5 35.5zM285 476l-85 -237h174zM336 814l62 -168h-17l-225 168h180z" />
    <glyph glyph-name="Aacute" unicode="&#xc1;" horiz-adv-x="667" 
d="M390 197h-208l-29 -78q-16 -42 -8.5 -65.5t55.5 -36.5v-17h-189v17q43 8 67 45t43 88l168 450h80l178 -468q24 -62 47.5 -87t61.5 -28v-17h-287v17q27 5 42 12t20.5 17.5t3 25t-10.5 35.5zM285 476l-85 -237h174zM286 646h-17l62 168h180z" />
    <glyph glyph-name="Acircumflex" unicode="&#xc2;" horiz-adv-x="667" 
d="M390 197h-208l-29 -78q-16 -42 -8.5 -65.5t55.5 -36.5v-17h-189v17q43 8 67 45t43 88l168 450h80l178 -468q24 -62 47.5 -87t61.5 -28v-17h-287v17q27 5 42 12t20.5 17.5t3 25t-10.5 35.5zM285 476l-85 -237h174zM496 635h-18l-144 104l-144 -104h-19l90 185h146z" />
    <glyph glyph-name="Atilde" unicode="&#xc3;" horiz-adv-x="667" 
d="M390 197h-208l-29 -78q-16 -42 -8.5 -65.5t55.5 -36.5v-17h-189v17q43 8 67 45t43 88l168 450h80l178 -468q24 -62 47.5 -87t61.5 -28v-17h-287v17q27 5 42 12t20.5 17.5t3 25t-10.5 35.5zM285 476l-85 -237h174zM504 786q0 -32 -10.5 -56t-27 -40.5t-37 -25t-40.5 -8.5
q-21 0 -42 7t-40.5 15.5t-37.5 15.5t-34 7q-41 0 -55 -41h-17q5 59 37.5 94.5t82.5 35.5q22 0 41.5 -7t38 -15.5t37.5 -15.5t40 -7q33 0 51 41h13z" />
    <glyph glyph-name="Adieresis" unicode="&#xc4;" horiz-adv-x="667" 
d="M390 197h-208l-29 -78q-16 -42 -8.5 -65.5t55.5 -36.5v-17h-189v17q43 8 67 45t43 88l168 450h80l178 -468q24 -62 47.5 -87t61.5 -28v-17h-287v17q27 5 42 12t20.5 17.5t3 25t-10.5 35.5zM285 476l-85 -237h174zM239 792q27 0 46.5 -19.5t19.5 -46.5t-19.5 -46.5
t-46.5 -19.5t-46.5 19.5t-19.5 46.5t19.5 46.5t46.5 19.5zM429 792q27 0 46.5 -19.5t19.5 -46.5t-19.5 -46.5t-46.5 -19.5t-46.5 19.5t-19.5 46.5t19.5 46.5t46.5 19.5z" />
    <glyph glyph-name="Aring" unicode="&#xc5;" horiz-adv-x="667" 
d="M390 197h-208l-29 -78q-16 -42 -8.5 -65.5t55.5 -36.5v-17h-189v17q43 8 67 45t43 88l168 450h80l178 -468q24 -62 47.5 -87t61.5 -28v-17h-287v17q27 5 42 12t20.5 17.5t3 25t-10.5 35.5zM285 476l-85 -237h174zM334 820q39 0 66.5 -27.5t27.5 -66.5t-27.5 -66.5
t-66.5 -27.5t-66.5 27.5t-27.5 66.5t27.5 66.5t66.5 27.5zM334 785q-25 0 -42 -17t-17 -42t17 -42t42 -17t42 17t17 42t-17 42t-42 17z" />
    <glyph glyph-name="AE" unicode="&#xc6;" horiz-adv-x="760" 
d="M724 455h-17q-9 29 -18.5 48t-22.5 30t-29.5 15t-40.5 4h-109v-242h106q33 0 52.5 16.5t29.5 56.5h17v-181h-17q-8 42 -29 58.5t-66 16.5h-93v-182q0 -32 21 -47t67 -15q36 0 59 5t39.5 17.5t28.5 33.5t24 53h17l-11 -142h-451v17q42 6 59.5 23t17.5 50v187h-128
l-85 -171q-9 -18 -13.5 -32.5t-1 -25.5t15.5 -18.5t36 -12.5v-17h-182v17q34 6 60.5 32t52.5 79l226 457h385v-130zM358 538h-2l-110 -228h112v228z" />
    <glyph glyph-name="Ccedilla" unicode="&#xc7;" horiz-adv-x="615" 
d="M303 -13q-58 7 -106 31.5t-82 63t-52.5 90t-18.5 112.5q0 68 24 125.5t66.5 100t100.5 66.5t125 24q33 0 58.5 -5.5t45.5 -12t35 -12t26 -5.5q22 0 36 30h16v-214h-16q-20 89 -72 137.5t-127 48.5q-41 0 -74 -18t-56 -51t-35.5 -80t-12.5 -105q0 -74 17.5 -125.5
t46.5 -84t67 -47t80 -14.5q54 0 98 22t90 71v-31q-22 -30 -46.5 -52.5t-55 -37.5t-68 -22t-85.5 -7l-13 -38q42 0 69 -24.5t27 -60.5q0 -29 -14 -54t-38.5 -43t-59 -29t-76.5 -12l5 18q48 5 74.5 29t26.5 53q0 23 -16 36t-51 18z" />
    <glyph glyph-name="Egrave" unicode="&#xc8;" horiz-adv-x="510" 
d="M438 202h-19q-10 75 -81 75h-103v-172q0 -40 18 -56t62 -16h34q27 0 47 9t34.5 24.5t24.5 35t17 40.5h17l-11 -142h-446v17q24 5 39 12t22.5 17.5t10 26.5t2.5 38v376q0 19 -3 32.5t-11 22.5t-22.5 15.5t-37.5 10.5v17h439v-130h-17q-7 28 -15.5 46.5t-20.5 30t-29 16
t-41 4.5h-113v-242h103q35 0 53.5 16.5t27.5 56.5h19v-181zM258 814l62 -168h-17l-225 168h180z" />
    <glyph glyph-name="Eacute" unicode="&#xc9;" horiz-adv-x="510" 
d="M438 202h-19q-10 75 -81 75h-103v-172q0 -40 18 -56t62 -16h34q27 0 47 9t34.5 24.5t24.5 35t17 40.5h17l-11 -142h-446v17q24 5 39 12t22.5 17.5t10 26.5t2.5 38v376q0 19 -3 32.5t-11 22.5t-22.5 15.5t-37.5 10.5v17h439v-130h-17q-7 28 -15.5 46.5t-20.5 30t-29 16
t-41 4.5h-113v-242h103q35 0 53.5 16.5t27.5 56.5h19v-181zM208 646h-17l62 168h180z" />
    <glyph glyph-name="Ecircumflex" unicode="&#xca;" horiz-adv-x="510" 
d="M438 202h-19q-10 75 -81 75h-103v-172q0 -40 18 -56t62 -16h34q27 0 47 9t34.5 24.5t24.5 35t17 40.5h17l-11 -142h-446v17q24 5 39 12t22.5 17.5t10 26.5t2.5 38v376q0 19 -3 32.5t-11 22.5t-22.5 15.5t-37.5 10.5v17h439v-130h-17q-7 28 -15.5 46.5t-20.5 30t-29 16
t-41 4.5h-113v-242h103q35 0 53.5 16.5t27.5 56.5h19v-181zM418 635h-18l-144 104l-144 -104h-19l90 185h146z" />
    <glyph glyph-name="Edieresis" unicode="&#xcb;" horiz-adv-x="510" 
d="M438 202h-19q-10 75 -81 75h-103v-172q0 -40 18 -56t62 -16h34q27 0 47 9t34.5 24.5t24.5 35t17 40.5h17l-11 -142h-446v17q24 5 39 12t22.5 17.5t10 26.5t2.5 38v376q0 19 -3 32.5t-11 22.5t-22.5 15.5t-37.5 10.5v17h439v-130h-17q-7 28 -15.5 46.5t-20.5 30t-29 16
t-41 4.5h-113v-242h103q35 0 53.5 16.5t27.5 56.5h19v-181zM161 792q27 0 46.5 -19.5t19.5 -46.5t-19.5 -46.5t-46.5 -19.5t-46.5 19.5t-19.5 46.5t19.5 46.5t46.5 19.5zM351 792q27 0 46.5 -19.5t19.5 -46.5t-19.5 -46.5t-46.5 -19.5t-46.5 19.5t-19.5 46.5t19.5 46.5
t46.5 19.5z" />
    <glyph glyph-name="Igrave" unicode="&#xcc;" horiz-adv-x="365" 
d="M247 99q0 -19 3 -32.5t11 -22.5t22.5 -15t37.5 -12v-17h-277v17q27 7 42 14.5t22 18.5t8.5 26t1.5 36v374q0 20 -3 33t-11 22t-22.5 15t-37.5 12v17h277v-17q-26 -6 -41 -13.5t-22.5 -18.5t-9 -26t-1.5 -36v-375zM185 814l62 -168h-17l-225 168h180z" />
    <glyph glyph-name="Iacute" unicode="&#xcd;" horiz-adv-x="365" 
d="M247 99q0 -19 3 -32.5t11 -22.5t22.5 -15t37.5 -12v-17h-277v17q27 7 42 14.5t22 18.5t8.5 26t1.5 36v374q0 20 -3 33t-11 22t-22.5 15t-37.5 12v17h277v-17q-26 -6 -41 -13.5t-22.5 -18.5t-9 -26t-1.5 -36v-375zM135 646h-17l62 168h180z" />
    <glyph glyph-name="Icircumflex" unicode="&#xce;" horiz-adv-x="365" 
d="M247 99q0 -19 3 -32.5t11 -22.5t22.5 -15t37.5 -12v-17h-277v17q27 7 42 14.5t22 18.5t8.5 26t1.5 36v374q0 20 -3 33t-11 22t-22.5 15t-37.5 12v17h277v-17q-26 -6 -41 -13.5t-22.5 -18.5t-9 -26t-1.5 -36v-375zM345 635h-18l-144 104l-144 -104h-19l90 185h146z" />
    <glyph glyph-name="Idieresis" unicode="&#xcf;" horiz-adv-x="365" 
d="M247 99q0 -19 3 -32.5t11 -22.5t22.5 -15t37.5 -12v-17h-277v17q27 7 42 14.5t22 18.5t8.5 26t1.5 36v374q0 20 -3 33t-11 22t-22.5 15t-37.5 12v17h277v-17q-26 -6 -41 -13.5t-22.5 -18.5t-9 -26t-1.5 -36v-375zM88 792q27 0 46.5 -19.5t19.5 -46.5t-19.5 -46.5
t-46.5 -19.5t-46.5 19.5t-19.5 46.5t19.5 46.5t46.5 19.5zM278 792q27 0 46.5 -19.5t19.5 -46.5t-19.5 -46.5t-46.5 -19.5t-46.5 19.5t-19.5 46.5t19.5 46.5t46.5 19.5z" />
    <glyph glyph-name="Eth" unicode="&#xd0;" horiz-adv-x="719" 
d="M105 276h-74v33h74v176q0 20 -3 33t-11 22t-22.5 15.5t-37.5 12.5v17h299q91 0 157 -24.5t109.5 -66t64.5 -96t21 -113.5q0 -63 -21 -115.5t-61 -90t-98.5 -58.5t-132.5 -21h-338v17q26 7 41 14.5t22.5 18t9 25.5t1.5 37v164zM234 102q0 -35 20 -52t75 -17q103 0 158 67
t55 191q0 52 -13 99.5t-41.5 83.5t-72 57t-105.5 21h-76v-243h141v-33h-141v-174z" />
    <glyph glyph-name="Ntilde" unicode="&#xd1;" horiz-adv-x="667" 
d="M569 -7h-19l-421 475v-358q0 -24 4 -40t14 -26.5t26.5 -16.5t41.5 -10v-17h-202v17q48 8 63 33t14 68v392q-17 17 -28 27.5t-19 16.5t-15 9t-16 5v17h176l342 -392v263q0 27 -3 45.5t-11 31.5t-22.5 21.5t-37.5 13.5v17h198v-17q-50 -3 -67.5 -30t-17.5 -66v-479z
M504 786q0 -32 -10.5 -56t-27 -40.5t-37 -25t-40.5 -8.5q-21 0 -42 7t-40.5 15.5t-37.5 15.5t-34 7q-41 0 -55 -41h-17q5 59 37.5 94.5t82.5 35.5q22 0 41.5 -7t38 -15.5t37.5 -15.5t40 -7q33 0 51 41h13z" />
    <glyph glyph-name="Ograve" unicode="&#xd2;" horiz-adv-x="719" 
d="M678 292q0 -67 -23.5 -123.5t-66 -97t-101 -63.5t-128.5 -23q-69 0 -127.5 23t-101 63.5t-66 97t-23.5 123.5t23.5 123.5t66 97.5t101 64t127.5 23q70 0 128.5 -23t101 -64t66 -97.5t23.5 -123.5zM538 288q0 62 -10 113t-31.5 88t-55.5 57.5t-82 20.5q-87 0 -132.5 -70
t-45.5 -210q0 -53 9.5 -101.5t30.5 -86t55 -59.5t83 -22q37 0 69.5 15t57 47.5t38.5 84t14 123.5zM362 814l62 -168h-17l-225 168h180z" />
    <glyph glyph-name="Oacute" unicode="&#xd3;" horiz-adv-x="719" 
d="M678 292q0 -67 -23.5 -123.5t-66 -97t-101 -63.5t-128.5 -23q-69 0 -127.5 23t-101 63.5t-66 97t-23.5 123.5t23.5 123.5t66 97.5t101 64t127.5 23q70 0 128.5 -23t101 -64t66 -97.5t23.5 -123.5zM538 288q0 62 -10 113t-31.5 88t-55.5 57.5t-82 20.5q-87 0 -132.5 -70
t-45.5 -210q0 -53 9.5 -101.5t30.5 -86t55 -59.5t83 -22q37 0 69.5 15t57 47.5t38.5 84t14 123.5zM312 646h-17l62 168h180z" />
    <glyph glyph-name="Ocircumflex" unicode="&#xd4;" horiz-adv-x="719" 
d="M678 292q0 -67 -23.5 -123.5t-66 -97t-101 -63.5t-128.5 -23q-69 0 -127.5 23t-101 63.5t-66 97t-23.5 123.5t23.5 123.5t66 97.5t101 64t127.5 23q70 0 128.5 -23t101 -64t66 -97.5t23.5 -123.5zM538 288q0 62 -10 113t-31.5 88t-55.5 57.5t-82 20.5q-87 0 -132.5 -70
t-45.5 -210q0 -53 9.5 -101.5t30.5 -86t55 -59.5t83 -22q37 0 69.5 15t57 47.5t38.5 84t14 123.5zM522 635h-18l-144 104l-144 -104h-19l90 185h146z" />
    <glyph glyph-name="Otilde" unicode="&#xd5;" horiz-adv-x="719" 
d="M678 292q0 -67 -23.5 -123.5t-66 -97t-101 -63.5t-128.5 -23q-69 0 -127.5 23t-101 63.5t-66 97t-23.5 123.5t23.5 123.5t66 97.5t101 64t127.5 23q70 0 128.5 -23t101 -64t66 -97.5t23.5 -123.5zM538 288q0 62 -10 113t-31.5 88t-55.5 57.5t-82 20.5q-87 0 -132.5 -70
t-45.5 -210q0 -53 9.5 -101.5t30.5 -86t55 -59.5t83 -22q37 0 69.5 15t57 47.5t38.5 84t14 123.5zM530 786q0 -32 -10.5 -56t-27 -40.5t-37 -25t-40.5 -8.5q-21 0 -42 7t-40.5 15.5t-37.5 15.5t-34 7q-41 0 -55 -41h-17q5 59 37.5 94.5t82.5 35.5q22 0 41.5 -7t38 -15.5
t37.5 -15.5t40 -7q33 0 51 41h13z" />
    <glyph glyph-name="Odieresis" unicode="&#xd6;" horiz-adv-x="719" 
d="M678 292q0 -67 -23.5 -123.5t-66 -97t-101 -63.5t-128.5 -23q-69 0 -127.5 23t-101 63.5t-66 97t-23.5 123.5t23.5 123.5t66 97.5t101 64t127.5 23q70 0 128.5 -23t101 -64t66 -97.5t23.5 -123.5zM538 288q0 62 -10 113t-31.5 88t-55.5 57.5t-82 20.5q-87 0 -132.5 -70
t-45.5 -210q0 -53 9.5 -101.5t30.5 -86t55 -59.5t83 -22q37 0 69.5 15t57 47.5t38.5 84t14 123.5zM265 792q27 0 46.5 -19.5t19.5 -46.5t-19.5 -46.5t-46.5 -19.5t-46.5 19.5t-19.5 46.5t19.5 46.5t46.5 19.5zM455 792q27 0 46.5 -19.5t19.5 -46.5t-19.5 -46.5t-46.5 -19.5
t-46.5 19.5t-19.5 46.5t19.5 46.5t46.5 19.5z" />
    <glyph glyph-name="multiply" unicode="&#xd7;" horiz-adv-x="668" 
d="M135 567l199 -199l199 199l46 -46l-199 -199l199 -199l-46 -46l-199 199l-199 -199l-46 46l199 199l-199 199z" />
    <glyph glyph-name="Oslash" unicode="&#xd8;" horiz-adv-x="719" 
d="M503 477q-22 45 -59 67.5t-85 22.5q-87 0 -132.5 -70t-45.5 -210q0 -43 4.5 -79t15.5 -65zM102 -14l-23 21l55 61q-45 44 -69 100t-24 124q0 67 23.5 123.5t66 97.5t101 64t127.5 23q113 0 199 -62l55 61l23 -20l-54 -60q46 -43 71 -101t25 -126q0 -67 -23.5 -123.5
t-66 -97t-101 -63.5t-128.5 -23q-64 0 -117.5 19.5t-83.5 43.5zM214 111q22 -44 56.5 -68.5t88.5 -24.5q37 0 69.5 15t57 47.5t38.5 84t14 123.5q0 40 -5.5 83.5t-16.5 74.5z" />
    <glyph glyph-name="Ugrave" unicode="&#xd9;" horiz-adv-x="719" 
d="M619 99q0 -19 3 -32.5t11 -22.5t22.5 -15t37.5 -12v-17h-203v78q-27 -27 -49.5 -45t-44 -28.5t-44.5 -15t-50 -4.5q-93 0 -147 52.5t-54 141.5v307q0 20 -3 33t-11 22t-22.5 15t-37.5 12v17h277v-17q-24 -6 -38.5 -12.5t-22.5 -16.5t-10.5 -24t-2.5 -34v-327
q0 -54 29.5 -84.5t80.5 -30.5q38 0 73.5 19.5t76.5 61.5v366q0 20 -3 33t-11 22t-22.5 15t-37.5 12v17h277v-17q-26 -6 -41 -13.5t-22.5 -18.5t-9 -26t-1.5 -36v-375zM362 814l62 -168h-17l-225 168h180z" />
    <glyph glyph-name="Uacute" unicode="&#xda;" horiz-adv-x="719" 
d="M619 99q0 -19 3 -32.5t11 -22.5t22.5 -15t37.5 -12v-17h-203v78q-27 -27 -49.5 -45t-44 -28.5t-44.5 -15t-50 -4.5q-93 0 -147 52.5t-54 141.5v307q0 20 -3 33t-11 22t-22.5 15t-37.5 12v17h277v-17q-24 -6 -38.5 -12.5t-22.5 -16.5t-10.5 -24t-2.5 -34v-327
q0 -54 29.5 -84.5t80.5 -30.5q38 0 73.5 19.5t76.5 61.5v366q0 20 -3 33t-11 22t-22.5 15t-37.5 12v17h277v-17q-26 -6 -41 -13.5t-22.5 -18.5t-9 -26t-1.5 -36v-375zM312 646h-17l62 168h180z" />
    <glyph glyph-name="Ucircumflex" unicode="&#xdb;" horiz-adv-x="719" 
d="M619 99q0 -19 3 -32.5t11 -22.5t22.5 -15t37.5 -12v-17h-203v78q-27 -27 -49.5 -45t-44 -28.5t-44.5 -15t-50 -4.5q-93 0 -147 52.5t-54 141.5v307q0 20 -3 33t-11 22t-22.5 15t-37.5 12v17h277v-17q-24 -6 -38.5 -12.5t-22.5 -16.5t-10.5 -24t-2.5 -34v-327
q0 -54 29.5 -84.5t80.5 -30.5q38 0 73.5 19.5t76.5 61.5v366q0 20 -3 33t-11 22t-22.5 15t-37.5 12v17h277v-17q-26 -6 -41 -13.5t-22.5 -18.5t-9 -26t-1.5 -36v-375zM522 635h-18l-144 104l-144 -104h-19l90 185h146z" />
    <glyph glyph-name="Udieresis" unicode="&#xdc;" horiz-adv-x="719" 
d="M619 99q0 -19 3 -32.5t11 -22.5t22.5 -15t37.5 -12v-17h-203v78q-27 -27 -49.5 -45t-44 -28.5t-44.5 -15t-50 -4.5q-93 0 -147 52.5t-54 141.5v307q0 20 -3 33t-11 22t-22.5 15t-37.5 12v17h277v-17q-24 -6 -38.5 -12.5t-22.5 -16.5t-10.5 -24t-2.5 -34v-327
q0 -54 29.5 -84.5t80.5 -30.5q38 0 73.5 19.5t76.5 61.5v366q0 20 -3 33t-11 22t-22.5 15t-37.5 12v17h277v-17q-26 -6 -41 -13.5t-22.5 -18.5t-9 -26t-1.5 -36v-375zM265 792q27 0 46.5 -19.5t19.5 -46.5t-19.5 -46.5t-46.5 -19.5t-46.5 19.5t-19.5 46.5t19.5 46.5
t46.5 19.5zM455 792q27 0 46.5 -19.5t19.5 -46.5t-19.5 -46.5t-46.5 -19.5t-46.5 19.5t-19.5 46.5t19.5 46.5t46.5 19.5z" />
    <glyph glyph-name="Yacute" unicode="&#xdd;" horiz-adv-x="615" 
d="M377 99q0 -39 15.5 -56.5t58.5 -25.5v-17h-277v17q42 6 58 26t16 60v171l-152 233q-22 33 -38.5 45.5t-44.5 15.5v17h267v-17q-69 -3 -26 -71l101 -156l89 128q24 35 20.5 62t-44.5 37v17h181v-17q-45 -5 -86 -63l-138 -197v-209zM260 646h-17l62 168h180z" />
    <glyph glyph-name="Thorn" unicode="&#xde;" horiz-adv-x="542" 
d="M233 451h97q53 0 91 -13.5t62 -35.5t35.5 -49.5t11.5 -56.5q0 -28 -11.5 -57.5t-37.5 -54.5t-68.5 -41t-105.5 -16q-17 0 -34 1.5t-40 4.5v-34q0 -39 15.5 -56.5t57.5 -25.5v-17h-276v17q22 5 36.5 11t22.5 16t11.5 25t3.5 37v380q0 39 -15.5 56.5t-57.5 25.5v17h276v-17
q-22 -4 -36.5 -10.5t-22.5 -16.5t-11.5 -25t-3.5 -37v-28zM233 166q12 -4 21.5 -5t21.5 -1q54 0 84 34t30 97q0 57 -30 92t-78 35h-49v-252z" />
    <glyph glyph-name="germandbls" unicode="&#xdf;" horiz-adv-x="563" 
d="M27 17q38 0 49 10.5t11 45.5v281q0 65 17 112.5t46.5 79t70 47t88.5 15.5q41 0 77.5 -12t63.5 -32.5t42.5 -48t15.5 -58.5q0 -48 -34.5 -85t-93.5 -52v-2q72 -14 111 -54t39 -101q0 -49 -19 -81.5t-47.5 -52t-61 -28t-59.5 -8.5q-14 0 -24.5 1.5t-23.5 5.5l-9 64h18
q6 -23 17 -34t25 -11q31 0 44.5 37.5t13.5 94.5q0 42 -6.5 71.5t-22 48t-40.5 27t-61 9.5v23q109 5 109 126q0 57 -24 91t-65 34q-52 0 -73 -46t-21 -119v-349q0 -32 13 -41t47 -9v-17h-233v17z" />
    <glyph glyph-name="agrave" unicode="&#xe0;" 
d="M372 73q0 -50 23 -50q24 0 30 35h16q-3 -35 -26.5 -54t-65.5 -19q-35 0 -56 12t-35 41l-9 -8q-29 -26 -56.5 -35.5t-62.5 -9.5q-23 0 -43.5 7.5t-36 21t-24.5 31.5t-9 39q0 38 25 60.5t61.5 37t79 24t76.5 22.5q0 51 -21.5 75t-72.5 24q-77 0 -113 -63h-15q15 61 59 94.5
t110 33.5q30 0 60 -7.5t53.5 -24t38 -43.5t14.5 -66v-178zM258 208q-35 -15 -58.5 -27.5t-38 -25.5t-20.5 -27.5t-6 -33.5q0 -31 14.5 -49.5t37.5 -18.5q32 0 71 39v143zM232 620l62 -168h-17l-225 168h180z" />
    <glyph glyph-name="aacute" unicode="&#xe1;" 
d="M372 73q0 -50 23 -50q24 0 30 35h16q-3 -35 -26.5 -54t-65.5 -19q-35 0 -56 12t-35 41l-9 -8q-29 -26 -56.5 -35.5t-62.5 -9.5q-23 0 -43.5 7.5t-36 21t-24.5 31.5t-9 39q0 38 25 60.5t61.5 37t79 24t76.5 22.5q0 51 -21.5 75t-72.5 24q-77 0 -113 -63h-15q15 61 59 94.5
t110 33.5q30 0 60 -7.5t53.5 -24t38 -43.5t14.5 -66v-178zM258 208q-35 -15 -58.5 -27.5t-38 -25.5t-20.5 -27.5t-6 -33.5q0 -31 14.5 -49.5t37.5 -18.5q32 0 71 39v143zM182 452h-17l62 168h180z" />
    <glyph glyph-name="acircumflex" unicode="&#xe2;" 
d="M372 73q0 -50 23 -50q24 0 30 35h16q-3 -35 -26.5 -54t-65.5 -19q-35 0 -56 12t-35 41l-9 -8q-29 -26 -56.5 -35.5t-62.5 -9.5q-23 0 -43.5 7.5t-36 21t-24.5 31.5t-9 39q0 38 25 60.5t61.5 37t79 24t76.5 22.5q0 51 -21.5 75t-72.5 24q-77 0 -113 -63h-15q15 61 59 94.5
t110 33.5q30 0 60 -7.5t53.5 -24t38 -43.5t14.5 -66v-178zM258 208q-35 -15 -58.5 -27.5t-38 -25.5t-20.5 -27.5t-6 -33.5q0 -31 14.5 -49.5t37.5 -18.5q32 0 71 39v143zM392 441h-18l-144 104l-144 -104h-19l90 185h146z" />
    <glyph glyph-name="atilde" unicode="&#xe3;" 
d="M372 73q0 -50 23 -50q24 0 30 35h16q-3 -35 -26.5 -54t-65.5 -19q-35 0 -56 12t-35 41l-9 -8q-29 -26 -56.5 -35.5t-62.5 -9.5q-23 0 -43.5 7.5t-36 21t-24.5 31.5t-9 39q0 38 25 60.5t61.5 37t79 24t76.5 22.5q0 51 -21.5 75t-72.5 24q-77 0 -113 -63h-15q15 61 59 94.5
t110 33.5q30 0 60 -7.5t53.5 -24t38 -43.5t14.5 -66v-178zM258 208q-35 -15 -58.5 -27.5t-38 -25.5t-20.5 -27.5t-6 -33.5q0 -31 14.5 -49.5t37.5 -18.5q32 0 71 39v143zM400 592q0 -32 -10.5 -56t-27 -40.5t-37 -25t-40.5 -8.5q-21 0 -42 7t-40.5 15.5t-37.5 15.5t-34 7
q-41 0 -55 -41h-17q5 59 37.5 94.5t82.5 35.5q22 0 41.5 -7t38 -15.5t37.5 -15.5t40 -7q33 0 51 41h13z" />
    <glyph glyph-name="adieresis" unicode="&#xe4;" 
d="M372 73q0 -50 23 -50q24 0 30 35h16q-3 -35 -26.5 -54t-65.5 -19q-35 0 -56 12t-35 41l-9 -8q-29 -26 -56.5 -35.5t-62.5 -9.5q-23 0 -43.5 7.5t-36 21t-24.5 31.5t-9 39q0 38 25 60.5t61.5 37t79 24t76.5 22.5q0 51 -21.5 75t-72.5 24q-77 0 -113 -63h-15q15 61 59 94.5
t110 33.5q30 0 60 -7.5t53.5 -24t38 -43.5t14.5 -66v-178zM258 208q-35 -15 -58.5 -27.5t-38 -25.5t-20.5 -27.5t-6 -33.5q0 -31 14.5 -49.5t37.5 -18.5q32 0 71 39v143zM135 598q27 0 46.5 -19.5t19.5 -46.5t-19.5 -46.5t-46.5 -19.5t-46.5 19.5t-19.5 46.5t19.5 46.5
t46.5 19.5zM325 598q27 0 46.5 -19.5t19.5 -46.5t-19.5 -46.5t-46.5 -19.5t-46.5 19.5t-19.5 46.5t19.5 46.5t46.5 19.5z" />
    <glyph glyph-name="aring" unicode="&#xe5;" 
d="M372 73q0 -50 23 -50q24 0 30 35h16q-3 -35 -26.5 -54t-65.5 -19q-35 0 -56 12t-35 41l-9 -8q-29 -26 -56.5 -35.5t-62.5 -9.5q-23 0 -43.5 7.5t-36 21t-24.5 31.5t-9 39q0 38 25 60.5t61.5 37t79 24t76.5 22.5q0 51 -21.5 75t-72.5 24q-77 0 -113 -63h-15q15 61 59 94.5
t110 33.5q30 0 60 -7.5t53.5 -24t38 -43.5t14.5 -66v-178zM258 208q-35 -15 -58.5 -27.5t-38 -25.5t-20.5 -27.5t-6 -33.5q0 -31 14.5 -49.5t37.5 -18.5q32 0 71 39v143zM230 626q39 0 66.5 -27.5t27.5 -66.5t-27.5 -66.5t-66.5 -27.5t-66.5 27.5t-27.5 66.5t27.5 66.5
t66.5 27.5zM230 591q-25 0 -42 -17t-17 -42t17 -42t42 -17t42 17t17 42t-17 42t-42 17z" />
    <glyph glyph-name="ae" unicode="&#xe6;" horiz-adv-x="719" 
d="M46 266q11 60 55 93t114 33q43 0 75.5 -11t64.5 -37q38 28 67.5 38t71.5 10q85 0 136.5 -44.5t60.5 -125.5h-294q-1 -42 9.5 -77t30.5 -59.5t47 -38t58 -13.5q37 0 72.5 21.5t60.5 58.5h16q-58 -129 -196 -129q-116 0 -178 86q-25 -23 -45.5 -39t-40.5 -26.5t-40.5 -15.5
t-44.5 -5q-25 0 -47 7.5t-38 21t-25 31.5t-9 39q0 41 26 64t64.5 37.5t83.5 24.5t83 24q0 29 -8.5 47.5t-22 29.5t-32.5 15t-40 4q-46 0 -73 -15t-44 -49h-18zM284 214q-30 -15 -55 -25t-43 -22t-28 -28t-10 -43q0 -30 13 -47t36 -17q21 0 40 8.5t47 30.5v143zM569 245
q-1 55 -24.5 87.5t-61.5 32.5q-41 0 -63 -33t-23 -87h172z" />
    <glyph glyph-name="ccedilla" unicode="&#xe7;" horiz-adv-x="469" 
d="M214 -12q-81 9 -129.5 61t-48.5 132q0 45 17 83.5t47.5 67t72 44.5t89.5 16q20 0 38 -2t33 -4q16 -2 29 -4t24 -2t16 2t14 10h16l9 -137h-17q-28 59 -61 86.5t-78 27.5q-58 0 -91 -44.5t-33 -122.5q0 -80 36.5 -125t102.5 -45q42 0 70.5 15.5t61.5 55.5h20
q-29 -60 -78.5 -89t-135.5 -29l-13 -38q42 0 69 -24.5t27 -60.5q0 -29 -14 -54t-38.5 -43t-59 -29t-76.5 -12l5 18q48 5 74.5 29t26.5 53q0 23 -16 36t-51 18z" />
    <glyph glyph-name="egrave" unicode="&#xe8;" horiz-adv-x="469" 
d="M159 222q-2 -46 8.5 -81.5t30 -59t44.5 -35.5t51 -12q81 0 135 82h17q-26 -61 -79.5 -96t-122.5 -35q-44 0 -82 15t-65.5 42t-43 64t-15.5 80q0 44 16 81.5t44.5 65.5t66.5 43.5t83 15.5q81 0 134 -46t64 -124h-286zM323 245q-3 53 -26 86.5t-58 33.5t-56.5 -33
t-23.5 -87h164zM237 620l62 -168h-17l-225 168h180z" />
    <glyph glyph-name="eacute" unicode="&#xe9;" horiz-adv-x="469" 
d="M159 222q-2 -46 8.5 -81.5t30 -59t44.5 -35.5t51 -12q81 0 135 82h17q-26 -61 -79.5 -96t-122.5 -35q-44 0 -82 15t-65.5 42t-43 64t-15.5 80q0 44 16 81.5t44.5 65.5t66.5 43.5t83 15.5q81 0 134 -46t64 -124h-286zM323 245q-3 53 -26 86.5t-58 33.5t-56.5 -33
t-23.5 -87h164zM187 452h-17l62 168h180z" />
    <glyph glyph-name="ecircumflex" unicode="&#xea;" horiz-adv-x="469" 
d="M159 222q-2 -46 8.5 -81.5t30 -59t44.5 -35.5t51 -12q81 0 135 82h17q-26 -61 -79.5 -96t-122.5 -35q-44 0 -82 15t-65.5 42t-43 64t-15.5 80q0 44 16 81.5t44.5 65.5t66.5 43.5t83 15.5q81 0 134 -46t64 -124h-286zM323 245q-3 53 -26 86.5t-58 33.5t-56.5 -33
t-23.5 -87h164zM397 441h-18l-144 104l-144 -104h-19l90 185h146z" />
    <glyph glyph-name="edieresis" unicode="&#xeb;" horiz-adv-x="469" 
d="M159 222q-2 -46 8.5 -81.5t30 -59t44.5 -35.5t51 -12q81 0 135 82h17q-26 -61 -79.5 -96t-122.5 -35q-44 0 -82 15t-65.5 42t-43 64t-15.5 80q0 44 16 81.5t44.5 65.5t66.5 43.5t83 15.5q81 0 134 -46t64 -124h-286zM323 245q-3 53 -26 86.5t-58 33.5t-56.5 -33
t-23.5 -87h164zM140 598q27 0 46.5 -19.5t19.5 -46.5t-19.5 -46.5t-46.5 -19.5t-46.5 19.5t-19.5 46.5t19.5 46.5t46.5 19.5zM330 598q27 0 46.5 -19.5t19.5 -46.5t-19.5 -46.5t-46.5 -19.5t-46.5 19.5t-19.5 46.5t19.5 46.5t46.5 19.5z" />
    <glyph glyph-name="igrave" unicode="&#xec;" horiz-adv-x="292" 
d="M206 81q0 -57 61 -64v-17h-237v17q38 8 50.5 22t12.5 50v201q0 35 -13.5 48.5t-54.5 21.5v17l164 14h17v-310zM149 620l62 -168h-17l-225 168h180z" />
    <glyph glyph-name="iacute" unicode="&#xed;" horiz-adv-x="292" 
d="M206 81q0 -57 61 -64v-17h-237v17q38 8 50.5 22t12.5 50v201q0 35 -13.5 48.5t-54.5 21.5v17l164 14h17v-310zM99 452h-17l62 168h180z" />
    <glyph glyph-name="icircumflex" unicode="&#xee;" horiz-adv-x="292" 
d="M206 81q0 -57 61 -64v-17h-237v17q38 8 50.5 22t12.5 50v201q0 35 -13.5 48.5t-54.5 21.5v17l164 14h17v-310zM309 441h-18l-144 104l-144 -104h-19l90 185h146z" />
    <glyph glyph-name="idieresis" unicode="&#xef;" horiz-adv-x="292" 
d="M206 81q0 -57 61 -64v-17h-237v17q38 8 50.5 22t12.5 50v201q0 35 -13.5 48.5t-54.5 21.5v17l164 14h17v-310zM52 598q27 0 46.5 -19.5t19.5 -46.5t-19.5 -46.5t-46.5 -19.5t-46.5 19.5t-19.5 46.5t19.5 46.5t46.5 19.5zM242 598q27 0 46.5 -19.5t19.5 -46.5t-19.5 -46.5
t-46.5 -19.5t-46.5 19.5t-19.5 46.5t19.5 46.5t46.5 19.5z" />
    <glyph glyph-name="eth" unicode="&#xf0;" horiz-adv-x="567" 
d="M173 184q0 -80 29 -124.5t81 -44.5q54 0 82 44.5t28 131.5q0 88 -30.5 129.5t-78.5 41.5q-58 0 -84.5 -48t-26.5 -130zM394 538q33 -37 56.5 -78t38.5 -82t22 -80t7 -73q0 -75 -24 -122t-59.5 -73.5t-76.5 -35.5t-76 -9q-51 0 -93.5 15.5t-74 42.5t-49 64.5t-17.5 81.5
q0 42 17.5 79t48 64.5t71 43.5t86.5 16q57 0 108 -24q-5 29 -14 64t-28 72l-105 -63l-18 29l107 64q-11 19 -25.5 36.5t-33.5 34.5l32 21q44 -30 76 -62l104 62l18 -29z" />
    <glyph glyph-name="ntilde" unicode="&#xf1;" horiz-adv-x="563" 
d="M364 241q0 43 -18.5 66.5t-51.5 23.5q-58 0 -94 -66v-176q0 -29 9.5 -45t46.5 -27v-17h-228v17q33 8 46 22t13 43v211q0 33 -15 47.5t-53 19.5v17l164 14h17v-91h2q24 41 59.5 66.5t83.5 25.5q21 0 44.5 -7.5t43 -24t32 -42.5t12.5 -63v-165q0 -30 10 -46.5t49 -26.5v-17
h-232v17q34 8 47 23t13 45v156zM452 592q0 -32 -10.5 -56t-27 -40.5t-37 -25t-40.5 -8.5q-21 0 -42 7t-40.5 15.5t-37.5 15.5t-34 7q-41 0 -55 -41h-17q5 59 37.5 94.5t82.5 35.5q22 0 41.5 -7t38 -15.5t37.5 -15.5t40 -7q33 0 51 41h13z" />
    <glyph glyph-name="ograve" unicode="&#xf2;" horiz-adv-x="542" 
d="M506 189q0 -37 -14.5 -74t-44 -65.5t-73.5 -46.5t-103 -18t-103 17.5t-73.5 46.5t-44.5 65.5t-15 74.5q0 29 11.5 64.5t39 66.5t73 51.5t112.5 20.5q61 0 105.5 -18.5t73 -48t42.5 -65.5t14 -71zM381 189q0 80 -27 128t-83 48q-30 0 -51 -13.5t-34.5 -38t-19.5 -58
t-6 -73.5q0 -78 30 -124t81 -46q53 0 81.5 47t28.5 130zM274 620l62 -168h-17l-225 168h180z" />
    <glyph glyph-name="oacute" unicode="&#xf3;" horiz-adv-x="542" 
d="M506 189q0 -37 -14.5 -74t-44 -65.5t-73.5 -46.5t-103 -18t-103 17.5t-73.5 46.5t-44.5 65.5t-15 74.5q0 29 11.5 64.5t39 66.5t73 51.5t112.5 20.5q61 0 105.5 -18.5t73 -48t42.5 -65.5t14 -71zM381 189q0 80 -27 128t-83 48q-30 0 -51 -13.5t-34.5 -38t-19.5 -58
t-6 -73.5q0 -78 30 -124t81 -46q53 0 81.5 47t28.5 130zM224 452h-17l62 168h180z" />
    <glyph glyph-name="ocircumflex" unicode="&#xf4;" horiz-adv-x="542" 
d="M506 189q0 -37 -14.5 -74t-44 -65.5t-73.5 -46.5t-103 -18t-103 17.5t-73.5 46.5t-44.5 65.5t-15 74.5q0 29 11.5 64.5t39 66.5t73 51.5t112.5 20.5q61 0 105.5 -18.5t73 -48t42.5 -65.5t14 -71zM381 189q0 80 -27 128t-83 48q-30 0 -51 -13.5t-34.5 -38t-19.5 -58
t-6 -73.5q0 -78 30 -124t81 -46q53 0 81.5 47t28.5 130zM434 441h-18l-144 104l-144 -104h-19l90 185h146z" />
    <glyph glyph-name="otilde" unicode="&#xf5;" horiz-adv-x="542" 
d="M506 189q0 -37 -14.5 -74t-44 -65.5t-73.5 -46.5t-103 -18t-103 17.5t-73.5 46.5t-44.5 65.5t-15 74.5q0 29 11.5 64.5t39 66.5t73 51.5t112.5 20.5q61 0 105.5 -18.5t73 -48t42.5 -65.5t14 -71zM381 189q0 80 -27 128t-83 48q-30 0 -51 -13.5t-34.5 -38t-19.5 -58
t-6 -73.5q0 -78 30 -124t81 -46q53 0 81.5 47t28.5 130zM442 592q0 -32 -10.5 -56t-27 -40.5t-37 -25t-40.5 -8.5q-21 0 -42 7t-40.5 15.5t-37.5 15.5t-34 7q-41 0 -55 -41h-17q5 59 37.5 94.5t82.5 35.5q22 0 41.5 -7t38 -15.5t37.5 -15.5t40 -7q33 0 51 41h13z" />
    <glyph glyph-name="odieresis" unicode="&#xf6;" horiz-adv-x="542" 
d="M506 189q0 -37 -14.5 -74t-44 -65.5t-73.5 -46.5t-103 -18t-103 17.5t-73.5 46.5t-44.5 65.5t-15 74.5q0 29 11.5 64.5t39 66.5t73 51.5t112.5 20.5q61 0 105.5 -18.5t73 -48t42.5 -65.5t14 -71zM381 189q0 80 -27 128t-83 48q-30 0 -51 -13.5t-34.5 -38t-19.5 -58
t-6 -73.5q0 -78 30 -124t81 -46q53 0 81.5 47t28.5 130zM177 598q27 0 46.5 -19.5t19.5 -46.5t-19.5 -46.5t-46.5 -19.5t-46.5 19.5t-19.5 46.5t19.5 46.5t46.5 19.5zM367 598q27 0 46.5 -19.5t19.5 -46.5t-19.5 -46.5t-46.5 -19.5t-46.5 19.5t-19.5 46.5t19.5 46.5
t46.5 19.5z" />
    <glyph glyph-name="divide" unicode="&#xf7;" horiz-adv-x="668" 
d="M334 168q17 0 29 -12t12 -29t-12 -29t-29 -12t-29 12t-12 29t12 29t29 12zM334 568q17 0 29 -12t12 -29t-12 -29t-29 -12t-29 12t-12 29t12 29t29 12zM600 358v-62h-532v62h532z" />
    <glyph glyph-name="oslash" unicode="&#xf8;" horiz-adv-x="542" 
d="M359 307q-13 26 -34.5 42t-53.5 16q-30 0 -51 -13.5t-34.5 -38t-19.5 -58t-6 -73.5q0 -24 3 -45t8 -37zM85 -35l-19 16l46 53q-42 30 -59.5 73.5t-17.5 81.5q0 29 11.5 64.5t39 66.5t73 51.5t112.5 20.5q41 0 73 -8.5t61 -23.5l53 58l18 -16l-50 -56q42 -31 61 -73
t19 -84q0 -37 -14.5 -74t-44 -65.5t-73.5 -46.5t-103 -18q-42 0 -78 9.5t-59 24.5zM181 73q16 -29 38 -45t52 -16q53 0 81.5 47t28.5 130q0 28 -3 49.5t-9 42.5z" />
    <glyph glyph-name="ugrave" unicode="&#xf9;" horiz-adv-x="563" 
d="M83 295q0 32 -12.5 45.5t-46.5 19.5v17l155 15h17v-278q0 -34 19.5 -50t50.5 -16q29 0 49 14.5t45 53.5v188q0 45 -59 56v17l155 15h17v-300q0 -19 2.5 -31t9 -20.5t18 -13.5t30.5 -10v-17l-173 -15v92h-2q-32 -48 -68 -70t-82 -22q-59 0 -92 30.5t-33 84.5v195zM284 620
l62 -168h-17l-225 168h180z" />
    <glyph glyph-name="uacute" unicode="&#xfa;" horiz-adv-x="563" 
d="M83 295q0 32 -12.5 45.5t-46.5 19.5v17l155 15h17v-278q0 -34 19.5 -50t50.5 -16q29 0 49 14.5t45 53.5v188q0 45 -59 56v17l155 15h17v-300q0 -19 2.5 -31t9 -20.5t18 -13.5t30.5 -10v-17l-173 -15v92h-2q-32 -48 -68 -70t-82 -22q-59 0 -92 30.5t-33 84.5v195zM234 452
h-17l62 168h180z" />
    <glyph glyph-name="ucircumflex" unicode="&#xfb;" horiz-adv-x="563" 
d="M83 295q0 32 -12.5 45.5t-46.5 19.5v17l155 15h17v-278q0 -34 19.5 -50t50.5 -16q29 0 49 14.5t45 53.5v188q0 45 -59 56v17l155 15h17v-300q0 -19 2.5 -31t9 -20.5t18 -13.5t30.5 -10v-17l-173 -15v92h-2q-32 -48 -68 -70t-82 -22q-59 0 -92 30.5t-33 84.5v195zM444 441
h-18l-144 104l-144 -104h-19l90 185h146z" />
    <glyph glyph-name="udieresis" unicode="&#xfc;" horiz-adv-x="563" 
d="M83 295q0 32 -12.5 45.5t-46.5 19.5v17l155 15h17v-278q0 -34 19.5 -50t50.5 -16q29 0 49 14.5t45 53.5v188q0 45 -59 56v17l155 15h17v-300q0 -19 2.5 -31t9 -20.5t18 -13.5t30.5 -10v-17l-173 -15v92h-2q-32 -48 -68 -70t-82 -22q-59 0 -92 30.5t-33 84.5v195zM187 598
q27 0 46.5 -19.5t19.5 -46.5t-19.5 -46.5t-46.5 -19.5t-46.5 19.5t-19.5 46.5t19.5 46.5t46.5 19.5zM377 598q27 0 46.5 -19.5t19.5 -46.5t-19.5 -46.5t-46.5 -19.5t-46.5 19.5t-19.5 46.5t19.5 46.5t46.5 19.5z" />
    <glyph glyph-name="yacute" unicode="&#xfd;" horiz-adv-x="500" 
d="M206 -171q-30 -69 -66 -97t-95 -28h-14.5t-17.5 2l23 114q18 -6 29 -7.5t22 -1.5q53 0 87.5 40.5t68.5 133.5l-138 291q-9 19 -17 32.5t-17.5 23.5t-23 16.5t-34.5 11.5v17h230v-17q-32 -5 -34.5 -22.5t14.5 -53.5l80 -165l52 121q26 60 18.5 86t-43.5 34v17h157v-17
q-18 -5 -30 -11t-22 -16.5t-18.5 -27t-20.5 -42.5zM203 452h-17l62 168h180z" />
    <glyph glyph-name="thorn" unicode="&#xfe;" horiz-adv-x="563" 
d="M204 319q64 73 152 73q38 0 70.5 -15t56.5 -41.5t37.5 -63t13.5 -79.5q0 -45 -15 -83.5t-41 -66t-62.5 -43t-79.5 -15.5q-18 0 -33 2.5t-30 8.5t-31.5 17t-37.5 27v-238q0 -20 3 -33t10.5 -22t21.5 -15t35 -10v-16h-251v17q21 3 34.5 8.5t21 16t10 27.5t2.5 43v693
q0 19 -2 32.5t-9 22.5t-20.5 15t-36.5 11v17l164 17h17v-307zM204 67q23 -23 45 -33.5t48 -10.5q51 0 81.5 43t30.5 115q0 75 -29 118t-80 43q-28 0 -50.5 -11.5t-45.5 -38.5v-225z" />
    <glyph glyph-name="ydieresis" unicode="&#xff;" horiz-adv-x="500" 
d="M206 -171q-30 -69 -66 -97t-95 -28h-14.5t-17.5 2l23 114q18 -6 29 -7.5t22 -1.5q53 0 87.5 40.5t68.5 133.5l-138 291q-9 19 -17 32.5t-17.5 23.5t-23 16.5t-34.5 11.5v17h230v-17q-32 -5 -34.5 -22.5t14.5 -53.5l80 -165l52 121q26 60 18.5 86t-43.5 34v17h157v-17
q-18 -5 -30 -11t-22 -16.5t-18.5 -27t-20.5 -42.5zM156 598q27 0 46.5 -19.5t19.5 -46.5t-19.5 -46.5t-46.5 -19.5t-46.5 19.5t-19.5 46.5t19.5 46.5t46.5 19.5zM346 598q27 0 46.5 -19.5t19.5 -46.5t-19.5 -46.5t-46.5 -19.5t-46.5 19.5t-19.5 46.5t19.5 46.5t46.5 19.5z
" />
    <glyph glyph-name="dotlessi" unicode="&#x131;" horiz-adv-x="292" 
d="M206 81q0 -57 61 -64v-17h-237v17q38 8 50.5 22t12.5 50v201q0 35 -13.5 48.5t-54.5 21.5v17l164 14h17v-310z" />
    <glyph glyph-name="Lslash" unicode="&#x141;" horiz-adv-x="510" 
d="M481 0h-447v17q25 6 40 13t22.5 17.5t9.5 25.5t2 39v80l-95 -96v45l95 95v250q0 20 -3 33t-11 22t-22.5 15t-37.5 12v17h277v-17q-22 -6 -36 -11.5t-22.5 -14t-12 -21t-3.5 -31.5v-139l122 124v-45l-122 -124v-210q0 -36 19 -49.5t73 -13.5q27 0 47.5 5t38 18t33 36.5
t33.5 59.5h17z" />
    <glyph glyph-name="lslash" unicode="&#x142;" horiz-adv-x="292" 
d="M204 92q0 -19 2.5 -31t10 -20.5t20.5 -13.5t34 -10v-17h-251v17q42 7 56.5 23t14.5 52v153l-89 -93v45l89 93v233q0 40 -15 56.5t-56 18.5v17l167 11h17v-235l87 91v-45l-87 -90v-255z" />
    <glyph glyph-name="OE" unicode="&#x152;" horiz-adv-x="938" 
d="M861 203h-17q-5 22 -11.5 36.5t-17 22.5t-26.5 11.5t-39 3.5h-107v-186q0 -32 22.5 -45t73.5 -13q35 0 60 5t43 17.5t31 34t23 55.5h17l-12 -145h-415q-20 0 -39.5 -0.5t-37.5 -1.5q-17 -1 -32.5 -1.5t-27.5 -0.5q-78 0 -136 24.5t-95.5 66t-56 95t-18.5 111.5
q0 62 21.5 116t60.5 94t93.5 63t121.5 23q21 0 35.5 -0.5t27.5 -1.5t26 -1.5t31 -0.5h435v-131h-17q-18 57 -38.5 77.5t-51.5 20.5h-145v-242h107q44 0 64.5 16.5t29.5 58.5h17v-182zM514 479q0 40 -25.5 58.5t-84.5 18.5q-110 0 -165.5 -69.5t-55.5 -205.5
q0 -121 60 -186.5t172 -65.5q57 0 78 21t21 75v354z" />
    <glyph glyph-name="oe" unicode="&#x153;" horiz-adv-x="781" 
d="M756 119q-22 -62 -76 -98t-125 -36q-38 0 -67.5 10.5t-62.5 34.5q-22 -13 -40 -21.5t-36 -14t-37 -7.5t-42 -2q-52 0 -95.5 15t-75 42t-49 64t-17.5 81q0 46 17.5 83.5t49 64.5t76 42t98.5 15q23 0 41 -2t35.5 -6.5t35 -13t39.5 -20.5q35 23 65 32.5t67 9.5
q83 0 136.5 -44.5t62.5 -121.5h-273q-3 -95 31.5 -142t94.5 -47q79 0 130 82h17zM267 365q-28 0 -48 -14.5t-33 -39.5t-18.5 -57.5t-5.5 -67.5q0 -38 6 -70t19 -55t33.5 -36t49.5 -13q51 0 75.5 48.5t24.5 133.5q0 81 -25.5 126t-77.5 45zM633 249q-2 54 -25.5 86.5
t-54.5 32.5q-32 0 -51.5 -33t-18.5 -86h150z" />
    <glyph glyph-name="Scaron" unicode="&#x160;" 
d="M382 446h-17q-8 26 -23.5 48t-35 38t-41.5 25.5t-45 9.5q-40 0 -68 -23t-28 -56t29 -62q11 -11 38.5 -28.5t58.5 -37t60 -38t42 -32.5q33 -33 48.5 -65t15.5 -70q0 -48 -19 -81t-47.5 -52.5t-61.5 -28t-60 -8.5q-26 0 -47.5 3.5t-39 8t-31.5 8t-25 3.5q-20 0 -30 -19h-17
v176h17q13 -66 53.5 -106.5t103.5 -40.5q48 0 78 23.5t30 59.5q0 14 -6.5 32t-23.5 35t-43 33.5t-54 33.5t-55 34.5t-45 35.5q-26 26 -39 57.5t-13 66.5q0 38 13.5 69.5t38 54t58.5 35t74 12.5q17 0 31.5 -2.5t28.5 -5.5t26.5 -5.5t23.5 -2.5q14 0 30 16h17v-154zM67 820h18
l144 -104l144 104h19l-90 -185h-146z" />
    <glyph glyph-name="scaron" unicode="&#x161;" horiz-adv-x="365" 
d="M310 274h-17q-17 43 -47.5 67t-68.5 24q-26 0 -44.5 -11.5t-18.5 -30.5q0 -20 16 -32.5t40.5 -22.5t53 -20.5t53 -27t40.5 -41.5t16 -64q0 -30 -12.5 -54.5t-32.5 -41t-44 -25.5t-47 -9q-18 0 -33.5 2t-28.5 5q-14 2 -24.5 4t-19.5 2q-22 0 -35 -13h-17v146h17
q57 -119 137 -119q27 0 47 16t20 39q0 25 -16.5 40.5t-41 27t-53.5 22t-53.5 25.5t-41 37t-16.5 58q0 23 9 43.5t26 36.5t41.5 25.5t55.5 9.5q13 0 28.5 -1.5t29.5 -3.5t25.5 -4t16.5 -2q7 0 13 3.5t10 6.5h17v-117zM20 626h18l144 -104l144 104h19l-90 -185h-146z" />
    <glyph glyph-name="Ydieresis" unicode="&#x178;" horiz-adv-x="615" 
d="M377 99q0 -39 15.5 -56.5t58.5 -25.5v-17h-277v17q42 6 58 26t16 60v171l-152 233q-22 33 -38.5 45.5t-44.5 15.5v17h267v-17q-69 -3 -26 -71l101 -156l89 128q24 35 20.5 62t-44.5 37v17h181v-17q-45 -5 -86 -63l-138 -197v-209zM213 792q27 0 46.5 -19.5t19.5 -46.5
t-19.5 -46.5t-46.5 -19.5t-46.5 19.5t-19.5 46.5t19.5 46.5t46.5 19.5zM403 792q27 0 46.5 -19.5t19.5 -46.5t-19.5 -46.5t-46.5 -19.5t-46.5 19.5t-19.5 46.5t19.5 46.5t46.5 19.5z" />
    <glyph glyph-name="Zcaron" unicode="&#x17d;" horiz-adv-x="615" 
d="M572 0h-555v17l395 535h-221q-27 0 -46.5 -5t-34.5 -18t-27 -35t-24 -56h-17l17 147h520v-16l-394 -536h228q32 0 55 4.5t42 17.5t35 36.5t34 61.5h18zM145 820h18l144 -104l144 104h19l-90 -185h-146z" />
    <glyph glyph-name="zcaron" unicode="&#x17e;" 
d="M280 350h-52q-63 0 -108.5 -26.5t-69.5 -61.5h-17l10 115h384v-17l-256 -333h56q81 0 127 28t67 75h17l-11 -130h-402v17zM67 626h18l144 -104l144 104h19l-90 -185h-146z" />
    <glyph glyph-name="florin" unicode="&#x192;" horiz-adv-x="667" 
d="M505 320h-71l-59 -335q-25 -143 -94 -204t-173 -61q-32 0 -60.5 4t-49.5 12l34 113h16q5 -45 27.5 -71.5t57.5 -26.5q29 0 51 12.5t38.5 34t27.5 50.5t17 61l74 411h-84l7 33h85q18 133 73 197.5t143 64.5q19 0 36.5 -3t37.5 -8l11 10h16l-37 -120h-15q-3 51 -17.5 73.5
t-43.5 22.5q-28 0 -45.5 -19.5t-29.5 -52t-20 -75.5t-16 -90h70z" />
    <glyph glyph-name="circumflex" unicode="&#x2c6;" horiz-adv-x="333" 
d="M329 441h-18l-144 104l-144 -104h-19l90 185h146z" />
    <glyph glyph-name="caron" unicode="&#x2c7;" horiz-adv-x="333" 
d="M4 626h18l144 -104l144 104h19l-90 -185h-146z" />
    <glyph glyph-name="breve" unicode="&#x2d8;" horiz-adv-x="333" 
d="M315 605q-1 -33 -12.5 -61.5t-31.5 -49.5t-46.5 -33t-56.5 -12t-56 12t-46 33t-32.5 49.5t-14.5 61.5h32q9 -29 39 -45.5t78 -16.5q43 0 73 13t43 49h31z" />
    <glyph glyph-name="dotaccent" unicode="&#x2d9;" horiz-adv-x="333" 
d="M167 598q27 0 46.5 -19.5t19.5 -46.5t-19.5 -46.5t-46.5 -19.5t-46.5 19.5t-19.5 46.5t19.5 46.5t46.5 19.5z" />
    <glyph glyph-name="ring" unicode="&#x2da;" horiz-adv-x="333" 
d="M167 626q39 0 66.5 -27.5t27.5 -66.5t-27.5 -66.5t-66.5 -27.5t-66.5 27.5t-27.5 66.5t27.5 66.5t66.5 27.5zM167 591q-25 0 -42 -17t-17 -42t17 -42t42 -17t42 17t17 42t-17 42t-42 17z" />
    <glyph glyph-name="ogonek" unicode="&#x2db;" horiz-adv-x="333" 
d="M322 -125q-26 -23 -57.5 -34.5t-65.5 -11.5q-46 0 -77 27t-31 66q0 25 12 45t38 40h32q-6 -14 -8 -23t-2 -19q0 -31 24 -52t59 -21q14 0 27.5 3.5t31.5 11.5z" />
    <glyph glyph-name="tilde" unicode="&#x2dc;" horiz-adv-x="333" 
d="M337 592q0 -32 -10.5 -56t-27 -40.5t-37 -25t-40.5 -8.5q-21 0 -42 7t-40.5 15.5t-37.5 15.5t-34 7q-41 0 -55 -41h-17q5 59 37.5 94.5t82.5 35.5q22 0 41.5 -7t38 -15.5t37.5 -15.5t40 -7q33 0 51 41h13z" />
    <glyph glyph-name="hungarumlaut" unicode="&#x2dd;" horiz-adv-x="333" 
d="M66 452h-17l62 168h151zM242 452h-17l62 168h151z" />
    <glyph glyph-name="endash" unicode="&#x2013;" horiz-adv-x="500" 
d="M506 234v-63h-512v63h512z" />
    <glyph glyph-name="emdash" unicode="&#x2014;" horiz-adv-x="1000" 
d="M1006 234v-63h-1012v63h1012z" />
    <glyph glyph-name="quoteleft" unicode="&#x2018;" horiz-adv-x="260" 
d="M218 609q-49 -17 -72 -44t-23 -69q0 -11 4.5 -24.5t13.5 -13.5q3 0 7.5 1t9.5 1q24 0 41 -20.5t17 -47.5q0 -31 -20.5 -51t-53.5 -20q-21 0 -39 10t-31.5 27t-21 40t-7.5 49q0 32 14.5 63.5t39 56t56 41t65.5 18.5v-17z" />
    <glyph glyph-name="quoteright" unicode="&#x2019;" horiz-adv-x="260" 
d="M42 338q49 17 72 44t23 69q0 11 -4.5 24.5t-13.5 13.5q-3 0 -7.5 -1t-9.5 -1q-24 0 -41 20.5t-17 47.5q0 31 20.5 51t53.5 20q21 0 39 -10t31.5 -27t21 -40t7.5 -49q0 -32 -14.5 -63.5t-39 -56t-56 -41t-65.5 -18.5v17z" />
    <glyph glyph-name="quotesinglbase" unicode="&#x201a;" horiz-adv-x="260" 
d="M43 -164q49 17 72 44t23 69q0 11 -4.5 24.5t-13.5 13.5q-3 0 -7.5 -1t-9.5 -1q-24 0 -41 20.5t-17 47.5q0 31 20.5 51t53.5 20q21 0 39 -10t31.5 -27t21 -40t7.5 -49q0 -32 -14.5 -63.5t-39 -56t-56 -41t-65.5 -18.5v17z" />
    <glyph glyph-name="quotedblleft" unicode="&#x201c;" 
d="M427 609q-49 -17 -72 -44t-23 -69q0 -11 4.5 -24t13.5 -13q3 0 7.5 1t9.5 1q24 0 41 -21t17 -48q0 -31 -20.5 -51t-53.5 -20q-21 0 -39 10t-31.5 27t-21 40t-7.5 49q0 32 14.5 63.5t39 56t56 41t65.5 18.5v-17zM206 609q-49 -17 -72 -44t-23 -69q0 -11 4.5 -24t13.5 -13
q3 0 7.5 1t9.5 1q24 0 41 -21t17 -48q0 -31 -20.5 -51t-53.5 -20q-21 0 -39 10t-31.5 27t-21 40t-7.5 49q0 32 14.5 63.5t39 56t56 41t65.5 18.5v-17z" />
    <glyph glyph-name="quotedblright" unicode="&#x201d;" 
d="M252 338q49 17 72 44t23 69q0 11 -4.5 24t-13.5 13q-3 0 -7.5 -1t-9.5 -1q-24 0 -41 21t-17 48q0 31 20.5 51t53.5 20q21 0 39 -10t31.5 -27t21 -40t7.5 -49q0 -32 -14.5 -63.5t-39 -56t-56 -41t-65.5 -18.5v17zM31 338q49 17 72 44t23 69q0 11 -4.5 24t-13.5 13
q-3 0 -7.5 -1t-9.5 -1q-24 0 -41 21t-17 48q0 31 20.5 51t53.5 20q21 0 39 -10t31.5 -27t21 -40t7.5 -49q0 -32 -14.5 -63.5t-39 -56t-56 -41t-65.5 -18.5v17z" />
    <glyph glyph-name="quotedblbase" unicode="&#x201e;" 
d="M252 -164q49 17 72 44t23 69q0 11 -4.5 24.5t-13.5 13.5q-3 0 -7.5 -1t-9.5 -1q-24 0 -41 20.5t-17 47.5q0 31 20.5 51t53.5 20q21 0 39 -10t31.5 -27t21 -40t7.5 -49q0 -32 -14.5 -63.5t-39 -56t-56 -41t-65.5 -18.5v17zM31 -164q49 17 72 44t23 69q0 11 -4.5 24.5
t-13.5 13.5q-3 0 -7.5 -1t-9.5 -1q-24 0 -41 20.5t-17 47.5q0 31 20.5 51t53.5 20q21 0 39 -10t31.5 -27t21 -40t7.5 -49q0 -32 -14.5 -63.5t-39 -56t-56 -41t-65.5 -18.5v17z" />
    <glyph glyph-name="dagger" unicode="&#x2020;" horiz-adv-x="510" 
d="M318 567q0 -27 -6.5 -47.5t-15.5 -40.5t-17 -44t-11 -58q22 1 37.5 8t29.5 15t29.5 14.5t35.5 6.5q32 0 50 -16t18 -45q0 -24 -17 -40t-43 -16t-44.5 8t-33.5 17t-29.5 16t-32.5 5q3 -40 17 -73t44 -73q-13 -43 -23.5 -101t-18.5 -125t-12.5 -140.5t-6.5 -146.5h-25
q-3 91 -7 156.5t-11 122t-17.5 111t-25.5 123.5q30 40 43.5 73t17.5 73q-20 2 -34 -5.5t-29 -16.5q-14 -9 -31.5 -16.5t-43.5 -7.5q-29 0 -45.5 16t-16.5 42q0 27 17.5 43t47.5 16q21 0 36 -6t29 -14t30 -15t40 -9q-3 32 -11 54.5t-16.5 42.5t-15.5 41t-7 51q0 27 16.5 43.5
t45.5 16.5t46 -16.5t17 -42.5z" />
    <glyph glyph-name="daggerdbl" unicode="&#x2021;" horiz-adv-x="510" 
d="M107 -32q17 0 33 -6t32.5 -13.5t34 -14.5t37.5 -9q-1 30 -15 56.5t-47 59.5q35 35 48 60.5t13 57.5t-13 57t-48 60q33 33 47 59t15 57q-21 -2 -38.5 -9t-33.5 -14.5t-31.5 -13.5t-32.5 -6q-23 0 -38 16t-15 39q0 25 15 40t39 15q23 0 38.5 -6.5t29 -15t29 -15.5t38.5 -7
q-2 20 -9.5 38t-15.5 35.5t-14.5 35t-6.5 36.5q0 30 16.5 48t43.5 18q25 0 42 -17.5t17 -43.5q0 -22 -6.5 -39t-14.5 -33t-16.5 -34t-11.5 -44q17 -2 31.5 4.5t30 15t34.5 16t45 7.5q23 0 36.5 -14.5t13.5 -37.5q0 -26 -15 -42t-39 -16q-20 0 -35.5 6t-30 13.5t-31.5 15
t-40 9.5q1 -31 15 -57.5t48 -58.5q-33 -32 -47.5 -59.5t-14.5 -57.5q0 -31 14.5 -58.5t47.5 -59.5q-34 -32 -48 -58.5t-15 -57.5q24 2 41 9.5t31.5 15t29 13.5t32.5 6q26 0 41.5 -15.5t15.5 -42.5q0 -23 -14 -37.5t-37 -14.5q-24 0 -43 7.5t-35 15.5t-31 14.5t-31 5.5
q1 -20 9 -38.5t17 -36.5t16 -36t7 -37q0 -28 -16.5 -45.5t-42.5 -17.5q-27 0 -43.5 17.5t-16.5 46.5q0 22 6.5 39.5t14.5 34t15.5 34t9.5 39.5q-21 1 -35.5 -5.5t-28 -15t-29.5 -16t-41 -7.5t-40 15t-15 39q0 23 15 39.5t37 16.5z" />
    <glyph glyph-name="bullet" unicode="&#x2022;" horiz-adv-x="350" 
d="M175 453q26 0 48 -9.5t38.5 -26t26 -38.5t9.5 -48q0 -25 -9.5 -47.5t-26 -39.5t-38.5 -26.5t-48 -9.5q-25 0 -47.5 9.5t-39.5 26.5t-26.5 39.5t-9.5 47.5q0 26 9.5 48t26.5 38.5t39.5 26t47.5 9.5z" />
    <glyph glyph-name="ellipsis" unicode="&#x2026;" horiz-adv-x="1000" 
d="M833 133q31 0 52.5 -21.5t21.5 -52.5t-21.5 -52.5t-52.5 -21.5t-52.5 21.5t-21.5 52.5t21.5 52.5t52.5 21.5zM500 133q31 0 52.5 -21.5t21.5 -52.5t-21.5 -52.5t-52.5 -21.5t-52.5 21.5t-21.5 52.5t21.5 52.5t52.5 21.5zM167 133q31 0 52.5 -21.5t21.5 -52.5t-21.5 -52.5
t-52.5 -21.5t-52.5 21.5t-21.5 52.5t21.5 52.5t52.5 21.5z" />
    <glyph glyph-name="perthousand" unicode="&#x2030;" horiz-adv-x="1042" 
d="M842 152q0 -72 11.5 -105t35.5 -33q26 0 36.5 38t10.5 113q0 61 -12 93t-35 32q-24 0 -35.5 -33t-11.5 -105zM758 152q0 75 34.5 117.5t96.5 42.5q60 0 95 -41.5t35 -111.5q0 -81 -33.5 -124t-96.5 -43q-62 0 -96.5 42.5t-34.5 117.5zM190 -8h-65l416 606h65zM446 152
q0 75 34.5 117.5t96.5 42.5q60 0 95 -41.5t35 -111.5q0 -81 -33.5 -124t-96.5 -43q-62 0 -96.5 42.5t-34.5 117.5zM530 152q0 -72 11.5 -105t35.5 -33q26 0 36.5 38t10.5 113q0 61 -12 93t-35 32q-24 0 -35.5 -33t-11.5 -105zM23 440q0 75 34.5 117.5t96.5 42.5
q60 0 95 -41.5t35 -111.5q0 -81 -33.5 -124t-96.5 -43q-62 0 -96.5 42.5t-34.5 117.5zM107 440q0 -72 11.5 -105t35.5 -33q26 0 36.5 38t10.5 113q0 61 -12 93t-35 32q-24 0 -35.5 -33t-11.5 -105z" />
    <glyph glyph-name="guilsinglleft" unicode="&#x2039;" horiz-adv-x="260" 
d="M246 -46h-20l-204 205l204 205h20l-96 -205z" />
    <glyph glyph-name="guilsinglright" unicode="&#x203a;" horiz-adv-x="260" 
d="M14 364h20l204 -205l-204 -205h-20l96 205z" />
    <glyph glyph-name="fraction" unicode="&#x2044;" horiz-adv-x="167" 
d="M-92 -8h-65l416 608h65z" />
    <glyph glyph-name="trademark" unicode="&#x2122;" horiz-adv-x="1000" 
d="M391 662l11 -98h-17q-6 39 -26.5 54t-67.5 15h-36v-279q0 -21 1.5 -33.5t7 -19.5t15.5 -9.5t27 -3.5v-20h-183v20q17 2 26.5 4.5t15 9.5t7 19t1.5 33v279h-39q-45 0 -64.5 -15t-27.5 -54h-17l10 98h356zM709 383l130 279h135v-18q-18 0 -28.5 -2.5t-16 -9.5t-7 -20
t-1.5 -34v-224q0 -21 1.5 -33.5t7 -19.5t16 -9.5t28.5 -3.5v-20h-195v20q19 0 31 2.5t18.5 9t8.5 18.5t2 31v236h-2l-149 -317h-16l-149 317h-2v-231q0 -42 9 -54t38 -12h18v-20h-151v20q18 0 29 2.5t17 9.5t8 20t2 34v224q0 22 -2 35t-8 20t-17 9t-29 2v18h141z" />
    <glyph glyph-name="minus" unicode="&#x2212;" horiz-adv-x="667" 
d="M599 358v-62h-532v62h532z" />
    <glyph glyph-name="fi" unicode="&#xfb01;" horiz-adv-x="542" 
d="M463 100q0 -22 2 -35.5t7.5 -22.5t16 -14.5t28.5 -10.5v-17h-222v17q18 3 28.5 8t16.5 14t8 23.5t2 37.5v246h-162v-263q0 -30 12.5 -44.5t44.5 -21.5v-17h-229v17q19 5 30.5 10t18 14t8.5 23t2 36v246h-59v17q28 8 40.5 20t18 26.5t6.5 32t5 37.5t14.5 41.5t33.5 45.5
q26 26 67 43t93 17q23 0 47 -4t46 -10.5t40.5 -16t30.5 -21.5l-95 -107l-13 10q0 55 -23.5 87.5t-59.5 32.5q-38 0 -58.5 -31t-20.5 -89v-100h158q28 0 55.5 3t44.5 10h17v-290z" />
    <glyph glyph-name="fl" unicode="&#xfb02;" horiz-adv-x="563" 
d="M485 89q0 -18 2.5 -29.5t9 -19t18 -13t30.5 -10.5v-17h-232v17q33 8 46 21.5t13 42.5v265h-167v-268q0 -25 14 -39t62 -22v-17h-262v17q25 4 39.5 9t22 14t9.5 23.5t2 37.5v244h-58v17q25 7 36.5 18t16.5 25.5t6 33t6.5 40t18.5 46t40 51.5q25 25 58 37.5t69 12.5
q62 0 115 -34q24 7 38.5 13.5t31.5 20.5h15v-537zM372 477q0 59 -21 90.5t-59 31.5q-40 0 -63.5 -29t-23.5 -77v-116h167v100z" />
  </font>
</defs>
</svg>
