<svg xmlns="http://www.w3.org/2000/svg" width="145" height="193">
  <path fill-rule="evenodd" fill="#fff" d="M35.97716165 108.67620247L24.1866758 120.46668832l48.1866752 48.1866752 48.1866755-48.18667548-6.02333427-6.02333426 12.0466686-12.0466686 12.0466692 12.04666923 6.02333427 6.0233343L72.373351 192.746702l-6.02333426-6.02333426L.0933377 120.46668867l6.02333426-6.02333426 18.07000348-18.07000344L.0933377 72.2800132l6.02333426-6.02333427L66.35001653 6.02333435 72.373351-.2e-7l72.2800133 72.2800133-6.02333447 6.02333448L72.373351 144.5600265l-6.02333426-6.02333427-24.26370367-24.26370367 12.04666923-12.04666922 18.2403687 18.2403687L96.46668874 96.3733503 72.37335128 72.28001282l-21.940187 21.940187-.17036563-.17036565L35.806796 108.50583683l.17036565.17036564zm.25618302-24.34952077L72.373351 48.18667537l6.0233344 6.0233344 30.11667193 30.11667193 12.04666887-12.04666887-48.1866752-48.1866752-48.1866752 48.1866752L36.23334467 84.3266817z"/>
</svg>
