<?xml version="1.0" encoding="UTF-8"?>
<svg width="44px" height="58px" viewBox="0 0 44 58" version="1.1" xmlns="http://www.w3.org/2000/svg" xmlns:xlink="http://www.w3.org/1999/xlink">
    <!-- Generator: Sketch 46.2 (44496) - http://www.bohemiancoding.com/sketch -->
    <title>Logo Devign</title>
    <desc>Created with Sketch.</desc>
    <defs></defs>
    <g id="Page-1" stroke="none" stroke-width="1" fill="none" fill-rule="evenodd">
        <g id="Project-page-Copy" transform="translate(-1276.000000, -92.000000)" fill="#FFFFFF">
            <path d="M1292.91808,131.079237 L1292.91808,135.972907 L1312.91808,135.972907 L1312.91808,115.972907 L1310.41808,115.972907 L1310.41808,110.972907 L1315.41808,110.972907 L1317.91808,110.972907 L1317.91808,140.972907 L1315.41808,140.972907 L1287.91808,140.972907 L1287.91808,138.472907 L1287.91808,130.972907 L1277.91808,130.972907 L1277.91808,128.472907 L1277.91808,103.472907 L1277.91808,100.972907 L1307.91808,100.972907 L1307.91808,103.472907 L1307.91808,130.972907 L1305.41808,130.972907 L1295.34737,130.972907 L1295.34737,125.972907 L1302.91808,125.972907 L1302.91808,115.972907 L1292.91808,115.972907 L1292.91808,125.079237 L1292.84737,125.079237 L1292.84737,131.079237 L1292.91808,131.079237 Z M1287.91808,125.972907 L1287.91808,110.972907 L1290.41808,110.972907 L1302.91808,110.972907 L1302.91808,105.972907 L1282.91808,105.972907 L1282.91808,125.972907 L1287.91808,125.972907 Z" id="Logo-Devign" transform="translate(1297.918085, 120.972907) rotate(-315.000000) translate(-1297.918085, -120.972907) "></path>
        </g>
    </g>
</svg>